<?xml version="1.0" encoding="utf-8" standalone="no"?>
<!DOCTYPE svg PUBLIC "-//W3C//DTD SVG 1.1//EN"
  "http://www.w3.org/Graphics/SVG/1.1/DTD/svg11.dtd">
<svg xmlns:xlink="http://www.w3.org/1999/xlink" width="504pt" height="360pt" viewBox="0 0 504 360" xmlns="http://www.w3.org/2000/svg" version="1.1">
 <metadata>
  <rdf:RDF xmlns:dc="http://purl.org/dc/elements/1.1/" xmlns:cc="http://creativecommons.org/ns#" xmlns:rdf="http://www.w3.org/1999/02/22-rdf-syntax-ns#">
   <cc:Work>
    <dc:type rdf:resource="http://purl.org/dc/dcmitype/StillImage"/>
    <dc:date>2024-07-02T16:51:41.095449</dc:date>
    <dc:format>image/svg+xml</dc:format>
    <dc:creator>
     <cc:Agent>
      <dc:title>Matplotlib v3.7.1, https://matplotlib.org/</dc:title>
     </cc:Agent>
    </dc:creator>
   </cc:Work>
  </rdf:RDF>
 </metadata>
 <defs>
  <style type="text/css">*{stroke-linejoin: round; stroke-linecap: butt}</style>
 </defs>
 <g id="figure_1">
  <g id="patch_1">
   <path d="M 0 360 
L 504 360 
L 504 0 
L 0 0 
z
" style="fill: #ffffff"/>
  </g>
  <g id="axes_1">
   <g id="patch_2">
    <path d="M 94.686598 95.80875 
L 376.480222 95.80875 
L 376.480222 3.00024 
L 94.686598 3.00024 
z
" style="fill: #ffffff"/>
   </g>
   <g id="matplotlib.axis_1">
    <g id="xtick_1">
     <g id="line2d_1">
      <defs>
       <path id="m8ce502c75f" d="M 0 0 
L 0 6 
" style="stroke: #262626; stroke-width: 1.25"/>
      </defs>
      <g>
       <use xlink:href="#m8ce502c75f" x="107.495399" y="95.80875" style="fill: #262626; stroke: #262626; stroke-width: 1.25"/>
      </g>
     </g>
    </g>
    <g id="xtick_2">
     <g id="line2d_2">
      <g>
       <use xlink:href="#m8ce502c75f" x="133.113002" y="95.80875" style="fill: #262626; stroke: #262626; stroke-width: 1.25"/>
      </g>
     </g>
    </g>
    <g id="xtick_3">
     <g id="line2d_3">
      <g>
       <use xlink:href="#m8ce502c75f" x="158.730604" y="95.80875" style="fill: #262626; stroke: #262626; stroke-width: 1.25"/>
      </g>
     </g>
    </g>
    <g id="xtick_4">
     <g id="line2d_4">
      <g>
       <use xlink:href="#m8ce502c75f" x="184.348206" y="95.80875" style="fill: #262626; stroke: #262626; stroke-width: 1.25"/>
      </g>
     </g>
    </g>
    <g id="xtick_5">
     <g id="line2d_5">
      <g>
       <use xlink:href="#m8ce502c75f" x="209.965808" y="95.80875" style="fill: #262626; stroke: #262626; stroke-width: 1.25"/>
      </g>
     </g>
    </g>
    <g id="xtick_6">
     <g id="line2d_6">
      <g>
       <use xlink:href="#m8ce502c75f" x="235.58341" y="95.80875" style="fill: #262626; stroke: #262626; stroke-width: 1.25"/>
      </g>
     </g>
    </g>
    <g id="xtick_7">
     <g id="line2d_7">
      <g>
       <use xlink:href="#m8ce502c75f" x="261.201013" y="95.80875" style="fill: #262626; stroke: #262626; stroke-width: 1.25"/>
      </g>
     </g>
    </g>
    <g id="xtick_8">
     <g id="line2d_8">
      <g>
       <use xlink:href="#m8ce502c75f" x="286.818615" y="95.80875" style="fill: #262626; stroke: #262626; stroke-width: 1.25"/>
      </g>
     </g>
    </g>
    <g id="xtick_9">
     <g id="line2d_9">
      <g>
       <use xlink:href="#m8ce502c75f" x="312.436217" y="95.80875" style="fill: #262626; stroke: #262626; stroke-width: 1.25"/>
      </g>
     </g>
    </g>
    <g id="xtick_10">
     <g id="line2d_10">
      <g>
       <use xlink:href="#m8ce502c75f" x="338.053819" y="95.80875" style="fill: #262626; stroke: #262626; stroke-width: 1.25"/>
      </g>
     </g>
    </g>
    <g id="xtick_11">
     <g id="line2d_11">
      <g>
       <use xlink:href="#m8ce502c75f" x="363.671421" y="95.80875" style="fill: #262626; stroke: #262626; stroke-width: 1.25"/>
      </g>
     </g>
    </g>
   </g>
   <g id="matplotlib.axis_2">
    <g id="ytick_1">
     <g id="line2d_12">
      <defs>
       <path id="m95bbd8a79f" d="M 0 0 
L -6 0 
" style="stroke: #262626; stroke-width: 1.25"/>
      </defs>
      <g>
       <use xlink:href="#m95bbd8a79f" x="94.686598" y="82.520398" style="fill: #262626; stroke: #262626; stroke-width: 1.25"/>
      </g>
     </g>
     <g id="text_1">
      <!-- $\mathdefault{−25}$ -->
      <g style="fill: #262626" transform="translate(64.182128 86.671487) scale(0.12 -0.12)">
       <defs>
        <path id="CMSY10-0" d="M 4218 1472 
C 4326 1472 4442 1472 4442 1600 
C 4442 1728 4326 1728 4218 1728 
L 755 1728 
C 646 1728 531 1728 531 1600 
C 531 1472 646 1472 755 1472 
L 4218 1472 
z
" transform="scale(0.015625)"/>
        <path id="CMR17-32" d="M 2669 989 
L 2554 989 
C 2490 536 2438 459 2413 420 
C 2381 369 1920 369 1830 369 
L 602 369 
C 832 619 1280 1072 1824 1597 
C 2214 1967 2669 2402 2669 3035 
C 2669 3790 2067 4224 1395 4224 
C 691 4224 262 3604 262 3030 
C 262 2780 448 2748 525 2748 
C 589 2748 781 2787 781 3010 
C 781 3207 614 3264 525 3264 
C 486 3264 448 3258 422 3245 
C 544 3790 915 4058 1306 4058 
C 1862 4058 2227 3617 2227 3035 
C 2227 2479 1901 2000 1536 1584 
L 262 146 
L 262 0 
L 2515 0 
L 2669 989 
z
" transform="scale(0.015625)"/>
        <path id="CMR17-35" d="M 730 3692 
C 794 3666 1056 3584 1325 3584 
C 1920 3584 2246 3911 2432 4100 
C 2432 4157 2432 4192 2394 4192 
C 2387 4192 2374 4192 2323 4163 
C 2099 4058 1837 3973 1517 3973 
C 1325 3973 1037 3999 723 4139 
C 653 4171 640 4171 634 4171 
C 602 4171 595 4164 595 4037 
L 595 2203 
C 595 2089 595 2057 659 2057 
C 691 2057 704 2070 736 2114 
C 941 2401 1222 2522 1542 2522 
C 1766 2522 2246 2382 2246 1289 
C 2246 1085 2246 715 2054 421 
C 1894 159 1645 25 1370 25 
C 947 25 518 320 403 814 
C 429 807 480 795 506 795 
C 589 795 749 840 749 1038 
C 749 1210 627 1280 506 1280 
C 358 1280 262 1190 262 1011 
C 262 454 704 -128 1382 -128 
C 2042 -128 2669 440 2669 1264 
C 2669 2030 2170 2624 1549 2624 
C 1222 2624 947 2503 730 2274 
L 730 3692 
z
" transform="scale(0.015625)"/>
       </defs>
       <use xlink:href="#CMSY10-0" transform="scale(0.996264)"/>
       <use xlink:href="#CMR17-32" transform="translate(77.487468 0) scale(0.996264)"/>
       <use xlink:href="#CMR17-35" transform="translate(123.177945 0) scale(0.996264)"/>
      </g>
     </g>
    </g>
    <g id="ytick_2">
     <g id="line2d_13">
      <g>
       <use xlink:href="#m95bbd8a79f" x="94.686598" y="49.404495" style="fill: #262626; stroke: #262626; stroke-width: 1.25"/>
      </g>
     </g>
     <g id="text_2">
      <!-- $\mathdefault{0}$ -->
      <g style="fill: #262626" transform="translate(79.333608 53.555585) scale(0.12 -0.12)">
       <defs>
        <path id="CMR17-30" d="M 2688 2025 
C 2688 2416 2682 3080 2413 3591 
C 2176 4039 1798 4198 1466 4198 
C 1158 4198 768 4058 525 3597 
C 269 3118 243 2524 243 2025 
C 243 1661 250 1106 448 619 
C 723 -39 1216 -128 1466 -128 
C 1760 -128 2208 -7 2470 600 
C 2662 1042 2688 1559 2688 2025 
z
M 1466 -26 
C 1056 -26 813 325 723 812 
C 653 1188 653 1738 653 2096 
C 653 2588 653 2997 736 3387 
C 858 3929 1216 4096 1466 4096 
C 1728 4096 2067 3923 2189 3400 
C 2272 3036 2278 2607 2278 2096 
C 2278 1680 2278 1169 2202 792 
C 2067 95 1690 -26 1466 -26 
z
" transform="scale(0.015625)"/>
       </defs>
       <use xlink:href="#CMR17-30" transform="scale(0.996264)"/>
      </g>
     </g>
    </g>
    <g id="ytick_3">
     <g id="line2d_14">
      <g>
       <use xlink:href="#m95bbd8a79f" x="94.686598" y="16.288592" style="fill: #262626; stroke: #262626; stroke-width: 1.25"/>
      </g>
     </g>
     <g id="text_3">
      <!-- $\mathdefault{25}$ -->
      <g style="fill: #262626" transform="translate(73.480618 20.439682) scale(0.12 -0.12)">
       <use xlink:href="#CMR17-32" transform="scale(0.996264)"/>
       <use xlink:href="#CMR17-35" transform="translate(45.690477 0) scale(0.996264)"/>
      </g>
     </g>
    </g>
    <g id="text_4">
     <!-- $B(t)$ -->
     <g style="fill: #262626" transform="translate(11.914594 53.140485) scale(0.15 -0.15)">
      <defs>
       <path id="CMMI12-42" d="M 2342 3921 
C 2400 4160 2426 4160 2675 4160 
L 3507 4160 
C 4230 4160 4230 3544 4230 3485 
C 4230 2966 3712 2304 2867 2304 
L 1946 2304 
L 2342 3921 
z
M 3424 2275 
C 4122 2402 4755 2886 4755 3473 
C 4755 3970 4314 4352 3590 4352 
L 1536 4352 
C 1414 4352 1357 4352 1357 4226 
C 1357 4160 1414 4160 1510 4160 
C 1901 4160 1901 4112 1901 4044 
C 1901 4032 1901 3993 1875 3897 
L 1011 472 
C 954 249 941 185 493 185 
C 371 185 307 185 307 70 
C 307 0 346 0 474 0 
L 2669 0 
C 3648 0 4403 739 4403 1383 
C 4403 1906 3942 2224 3424 2275 
z
M 2515 185 
L 1651 185 
C 1562 185 1549 185 1510 192 
C 1440 198 1434 211 1434 261 
C 1434 305 1446 343 1459 399 
L 1907 2176 
L 3110 2176 
C 3866 2176 3866 1483 3866 1433 
C 3866 828 3309 185 2515 185 
z
" transform="scale(0.015625)"/>
       <path id="CMR17-28" d="M 1958 -1561 
C 1958 -1555 1958 -1542 1939 -1523 
C 1645 -1224 858 -407 858 1581 
C 858 3569 1632 4379 1946 4697 
C 1946 4704 1958 4717 1958 4736 
C 1958 4755 1939 4768 1914 4768 
C 1843 4768 1299 4296 986 3594 
C 666 2887 576 2199 576 1588 
C 576 1128 621 351 1005 -471 
C 1312 -1135 1837 -1600 1914 -1600 
C 1946 -1600 1958 -1587 1958 -1561 
z
" transform="scale(0.015625)"/>
       <path id="CMMI12-74" d="M 1286 2566 
L 1875 2566 
C 1997 2566 2061 2566 2061 2681 
C 2061 2752 2022 2752 1894 2752 
L 1331 2752 
L 1568 3692 
C 1594 3781 1594 3794 1594 3840 
C 1594 3943 1510 4000 1427 4000 
C 1376 4000 1229 3981 1178 3775 
L 928 2752 
L 326 2752 
C 198 2752 141 2752 141 2630 
C 141 2566 186 2566 307 2566 
L 877 2566 
L 454 881 
C 403 658 384 594 384 511 
C 384 211 595 -64 954 -64 
C 1600 -64 1946 868 1946 912 
C 1946 951 1920 970 1882 970 
C 1869 970 1843 970 1830 944 
C 1824 938 1818 931 1773 829 
C 1638 511 1344 64 973 64 
C 781 64 768 224 768 364 
C 768 370 768 492 787 568 
L 1286 2566 
z
" transform="scale(0.015625)"/>
       <path id="CMR17-29" d="M 1683 1581 
C 1683 2040 1638 2817 1254 3639 
C 947 4303 422 4768 346 4768 
C 326 4768 301 4761 301 4729 
C 301 4717 307 4710 314 4697 
C 621 4378 1402 3568 1402 1584 
C 1402 -407 627 -1217 314 -1537 
C 307 -1549 301 -1556 301 -1568 
C 301 -1600 326 -1600 346 -1600 
C 416 -1600 960 -1128 1274 -426 
C 1594 281 1683 969 1683 1581 
z
" transform="scale(0.015625)"/>
      </defs>
      <use xlink:href="#CMMI12-42" transform="scale(0.996264)"/>
      <use xlink:href="#CMR17-28" transform="translate(79.135523 0) scale(0.996264)"/>
      <use xlink:href="#CMMI12-74" transform="translate(114.416291 0) scale(0.996264)"/>
      <use xlink:href="#CMR17-29" transform="translate(149.642621 0) scale(0.996264)"/>
     </g>
    </g>
   </g>
   <g id="line2d_15">
    <path d="M 107.495399 7.218809 
L 363.671421 7.218809 
L 363.671421 7.218809 
" clip-path="url(#pa4a5020c58)" style="fill: none; stroke: #023eff; stroke-width: 1.5; stroke-linecap: round"/>
   </g>
   <g id="line2d_16">
    <path d="M 107.495399 91.590181 
L 363.671421 91.590181 
L 363.671421 91.590181 
" clip-path="url(#pa4a5020c58)" style="fill: none; stroke: #ff7c00; stroke-width: 1.5; stroke-linecap: round"/>
   </g>
   <g id="line2d_17">
    <path d="M 107.495399 49.404495 
L 363.671421 7.218809 
L 363.671421 7.218809 
" clip-path="url(#pa4a5020c58)" style="fill: none; stroke: #1ac938; stroke-width: 1.5; stroke-linecap: round"/>
   </g>
   <g id="line2d_18">
    <path d="M 107.495399 49.404495 
L 115.693032 36.873592 
L 120.048025 30.607695 
L 123.634489 25.802352 
L 126.964777 21.705974 
L 130.038889 18.291998 
L 132.856826 15.510768 
L 135.418586 13.297502 
L 137.72417 11.579077 
L 140.029754 10.132642 
L 142.335338 8.968595 
L 144.384747 8.177768 
L 146.434155 7.6212 
L 148.483563 7.302052 
L 150.532971 7.222139 
L 152.582379 7.381915 
L 154.631787 7.780471 
L 156.681196 8.415543 
L 158.730604 9.283523 
L 160.780012 10.379478 
L 163.085596 11.877126 
L 165.39118 13.644619 
L 167.952941 15.909465 
L 170.514701 18.471615 
L 173.332637 21.60615 
L 176.406749 25.36484 
L 179.737038 29.781777 
L 183.835854 35.614499 
L 188.959374 43.329301 
L 203.305232 65.180221 
L 207.404048 70.878756 
L 210.734336 75.155553 
L 213.808449 78.762054 
L 216.626385 81.739528 
L 219.188145 84.145783 
L 221.749905 86.243671 
L 224.055489 87.852667 
L 226.361074 89.185198 
L 228.410482 90.129782 
L 230.45989 90.842957 
L 232.509298 91.32067 
L 234.558706 91.560207 
L 236.608114 91.560207 
L 238.657523 91.32067 
L 240.706931 90.842957 
L 242.756339 90.129782 
L 244.805747 89.185198 
L 246.855155 88.014572 
L 249.16074 86.435758 
L 251.466324 84.590666 
L 254.028084 82.244461 
L 256.84602 79.327845 
L 259.663956 76.089901 
L 262.738069 72.232066 
L 266.324533 67.366286 
L 270.679525 61.0466 
L 276.571574 52.053356 
L 286.818615 36.368401 
L 291.173607 30.134603 
L 294.760071 25.36484 
L 298.09036 21.308327 
L 300.908296 18.20265 
L 303.726232 15.432029 
L 306.287992 13.229144 
L 308.593577 11.520585 
L 310.899161 10.084435 
L 312.948569 9.04494 
L 314.997977 8.234777 
L 317.047385 7.658547 
L 319.096794 7.319527 
L 321.146202 7.219641 
L 323.19561 7.359459 
L 325.245018 7.738184 
L 327.294426 8.353666 
L 329.343834 9.202407 
L 331.393243 10.279585 
L 333.698827 11.756791 
L 336.004411 13.504709 
L 338.566171 15.748989 
L 341.127931 18.291998 
L 343.945868 21.407325 
L 347.01998 25.147504 
L 350.350268 29.547526 
L 354.192909 34.989979 
L 359.060253 42.28214 
L 363.671421 49.404495 
L 363.671421 49.404495 
" clip-path="url(#pa4a5020c58)" style="fill: none; stroke: #e8000b; stroke-width: 1.5; stroke-linecap: round"/>
   </g>
   <g id="patch_3">
    <path d="M 94.686598 95.80875 
L 94.686598 3.00024 
" style="fill: none; stroke: #262626; stroke-width: 1.25; stroke-linejoin: miter; stroke-linecap: square"/>
   </g>
   <g id="patch_4">
    <path d="M 376.480222 95.80875 
L 376.480222 3.00024 
" style="fill: none; stroke: #262626; stroke-width: 1.25; stroke-linejoin: miter; stroke-linecap: square"/>
   </g>
   <g id="patch_5">
    <path d="M 94.686598 95.80875 
L 376.480222 95.80875 
" style="fill: none; stroke: #262626; stroke-width: 1.25; stroke-linejoin: miter; stroke-linecap: square"/>
   </g>
   <g id="patch_6">
    <path d="M 94.686598 3.00024 
L 376.480222 3.00024 
" style="fill: none; stroke: #262626; stroke-width: 1.25; stroke-linejoin: miter; stroke-linecap: square"/>
   </g>
   <g id="legend_1">
    <g id="patch_7">
     <path d="M 385.716095 92.555971 
L 498.644171 92.555971 
Q 501.044171 92.555971 501.044171 90.155971 
L 501.044171 6.60024 
Q 501.044171 4.20024 498.644171 4.20024 
L 385.716095 4.20024 
Q 383.316095 4.20024 383.316095 6.60024 
L 383.316095 90.155971 
Q 383.316095 92.555971 385.716095 92.555971 
z
" style="fill: #ffffff; opacity: 0.8; stroke: #cccccc; stroke-linejoin: miter"/>
    </g>
    <g id="text_5">
     <!-- Field -->
     <g style="fill: #262626" transform="translate(429.255813 17.30242) scale(0.12 -0.12)">
      <defs>
       <path id="CMR17-46" d="M 3482 4325 
L 326 4325 
L 326 4160 
C 768 4160 838 4160 838 3874 
L 838 446 
C 838 160 768 160 326 160 
L 326 0 
C 512 0 870 0 1069 0 
C 1331 0 1638 0 1901 0 
L 1901 160 
L 1760 160 
C 1274 160 1261 223 1261 452 
L 1261 2075 
L 1837 2075 
C 2432 2075 2490 1865 2490 1332 
L 2605 1332 
L 2605 2987 
L 2490 2987 
C 2490 2450 2432 2240 1837 2240 
L 1261 2240 
L 1261 3911 
C 1261 4128 1274 4160 1530 4160 
L 2355 4160 
C 3322 4160 3430 3765 3520 2916 
L 3635 2916 
L 3482 4325 
z
" transform="scale(0.015625)"/>
       <path id="CMR17-69" d="M 992 3909 
C 992 4049 877 4170 730 4170 
C 589 4170 467 4056 467 3909 
C 467 3769 582 3648 730 3648 
C 870 3648 992 3763 992 3909 
z
M 243 2706 
L 243 2541 
C 602 2541 653 2502 653 2197 
L 653 427 
C 653 184 627 153 218 153 
L 218 -13 
C 371 0 646 0 806 0 
C 960 0 1222 0 1370 -13 
L 1370 153 
C 992 153 979 191 979 420 
L 979 2776 
L 243 2706 
z
" transform="scale(0.015625)"/>
       <path id="CMR17-65" d="M 2438 1472 
C 2464 1498 2464 1511 2464 1576 
C 2464 2238 2118 2816 1389 2816 
C 710 2816 173 2169 173 1383 
C 173 551 781 -64 1459 -64 
C 2176 -64 2458 607 2458 740 
C 2458 784 2419 784 2406 784 
C 2362 784 2355 771 2330 696 
C 2189 265 1837 51 1504 51 
C 1229 51 954 203 781 480 
C 582 803 582 1176 582 1472 
L 2438 1472 
z
M 589 1568 
C 634 2505 1126 2714 1382 2714 
C 1818 2714 2112 2297 2118 1568 
L 589 1568 
z
" transform="scale(0.015625)"/>
       <path id="CMR17-6c" d="M 979 4396 
L 218 4326 
L 218 4160 
C 595 4160 653 4122 653 3817 
L 653 426 
C 653 184 627 153 218 153 
L 218 -13 
C 371 0 653 0 813 0 
C 979 0 1261 0 1414 -13 
L 1414 153 
C 1005 153 979 178 979 426 
L 979 4396 
z
" transform="scale(0.015625)"/>
       <path id="CMR17-64" d="M 1869 4326 
L 1869 4160 
C 2246 4160 2304 4122 2304 3820 
L 2304 2345 
C 2278 2377 2016 2790 1498 2790 
C 845 2790 211 2208 211 1364 
C 211 525 806 -64 1434 -64 
C 1978 -64 2259 337 2291 380 
L 2291 -63 
L 3066 -63 
L 3066 128 
C 2688 128 2630 166 2630 473 
L 2630 4396 
L 1869 4326 
z
M 2291 755 
C 2291 563 2176 390 2029 262 
C 1811 70 1594 38 1472 38 
C 1286 38 621 134 621 1356 
C 621 2612 1363 2688 1530 2688 
C 1824 2688 2061 2522 2208 2291 
C 2291 2157 2291 2138 2291 2023 
L 2291 755 
z
" transform="scale(0.015625)"/>
      </defs>
      <use xlink:href="#CMR17-46" transform="scale(0.996264)"/>
      <use xlink:href="#CMR17-69" transform="translate(59.983847 0) scale(0.996264)"/>
      <use xlink:href="#CMR17-65" transform="translate(84.854905 0) scale(0.996264)"/>
      <use xlink:href="#CMR17-6c" transform="translate(125.340566 0) scale(0.996264)"/>
      <use xlink:href="#CMR17-64" transform="translate(150.211624 0) scale(0.996264)"/>
     </g>
    </g>
    <g id="line2d_19">
     <path d="M 388.116095 29.827016 
L 400.116095 29.827016 
L 412.116095 29.827016 
" style="fill: none; stroke: #023eff; stroke-width: 1.5; stroke-linecap: round"/>
    </g>
    <g id="text_6">
     <!-- Constant -->
     <g style="fill: #262626" transform="translate(421.716095 34.027016) scale(0.12 -0.12)">
      <defs>
       <path id="CMR17-43" d="M 3974 4289 
C 3974 4403 3968 4410 3930 4410 
C 3904 4410 3898 4403 3853 4327 
L 3571 3792 
C 3258 4187 2874 4416 2381 4416 
C 1286 4416 294 3456 294 2148 
C 294 826 1286 -128 2387 -128 
C 3366 -128 3974 730 3974 1461 
C 3974 1524 3974 1550 3917 1550 
C 3866 1550 3866 1531 3859 1474 
C 3808 585 3168 38 2477 38 
C 1824 38 781 495 781 2147 
C 781 3805 1843 4250 2464 4250 
C 3187 4250 3712 3628 3834 2745 
C 3846 2668 3846 2655 3904 2655 
C 3974 2655 3974 2668 3974 2783 
L 3974 4289 
z
" transform="scale(0.015625)"/>
       <path id="CMR17-6f" d="M 2758 1356 
C 2758 2176 2163 2816 1466 2816 
C 768 2816 173 2176 173 1356 
C 173 551 768 -64 1466 -64 
C 2163 -64 2758 551 2758 1356 
z
M 1466 51 
C 1165 51 909 230 762 480 
C 602 767 582 1126 582 1408 
C 582 1677 595 2010 762 2298 
C 890 2509 1139 2714 1466 2714 
C 1754 2714 1997 2554 2150 2330 
C 2349 2029 2349 1607 2349 1408 
C 2349 1158 2336 775 2163 467 
C 1984 173 1709 51 1466 51 
z
" transform="scale(0.015625)"/>
       <path id="CMR17-6e" d="M 2656 1933 
C 2656 2259 2592 2790 1837 2790 
C 1331 2790 1069 2400 973 2144 
L 966 2144 
L 966 2790 
L 211 2720 
L 211 2554 
C 589 2554 646 2515 646 2208 
L 646 428 
C 646 184 621 153 211 153 
L 211 -13 
C 365 0 646 0 813 0 
C 979 0 1267 0 1421 -13 
L 1421 153 
C 1011 153 986 178 986 428 
L 986 1658 
C 986 2247 1344 2688 1792 2688 
C 2266 2688 2317 2266 2317 1958 
L 2317 428 
C 2317 184 2291 153 1882 153 
L 1882 -13 
C 2035 0 2317 0 2483 0 
C 2650 0 2938 0 3091 -13 
L 3091 153 
C 2682 153 2656 178 2656 428 
L 2656 1933 
z
" transform="scale(0.015625)"/>
       <path id="CMR17-73" d="M 1978 2697 
C 1978 2813 1971 2819 1933 2819 
C 1907 2819 1901 2813 1824 2717 
C 1805 2691 1747 2626 1728 2601 
C 1523 2819 1235 2819 1126 2819 
C 416 2819 160 2447 160 2076 
C 160 1498 813 1365 998 1325 
C 1402 1243 1542 1217 1677 1101 
C 1760 1025 1901 884 1901 654 
C 1901 384 1747 38 1158 38 
C 602 38 403 460 288 1021 
C 269 1110 269 1117 218 1117 
C 166 1117 160 1110 160 983 
L 160 63 
C 160 -51 166 -58 205 -58 
C 237 -58 243 -51 275 0 
C 314 57 410 211 448 276 
C 576 103 800 -64 1158 -64 
C 1792 -64 2131 283 2131 784 
C 2131 1112 1958 1285 1875 1362 
C 1683 1561 1459 1606 1190 1657 
C 838 1735 390 1825 390 2217 
C 390 2383 480 2737 1126 2737 
C 1811 2737 1850 2094 1862 1888 
C 1869 1856 1901 1849 1920 1849 
C 1978 1849 1978 1869 1978 1978 
L 1978 2697 
z
" transform="scale(0.015625)"/>
       <path id="CMR17-74" d="M 966 2560 
L 1862 2560 
L 1862 2725 
L 966 2725 
L 966 3904 
L 851 3904 
C 838 3245 614 2668 70 2668 
L 70 2560 
L 627 2560 
L 627 771 
C 627 650 627 -64 1370 -64 
C 1747 -64 1965 306 1965 777 
L 1965 1140 
L 1850 1140 
L 1850 783 
C 1850 344 1677 51 1408 51 
C 1222 51 966 178 966 758 
L 966 2560 
z
" transform="scale(0.015625)"/>
       <path id="CMR17-61" d="M 2304 1653 
C 2304 2072 2304 2294 2035 2543 
C 1798 2752 1523 2816 1306 2816 
C 800 2816 435 2407 435 1971 
C 435 1728 627 1728 666 1728 
C 749 1728 896 1778 896 1954 
C 896 2112 774 2181 666 2181 
C 640 2181 608 2174 589 2168 
C 723 2592 1069 2714 1293 2714 
C 1613 2714 1965 2429 1965 1885 
L 1965 1600 
C 1587 1600 1133 1549 774 1357 
C 371 1133 256 813 256 570 
C 256 77 832 -64 1171 -64 
C 1523 -64 1850 139 1990 511 
C 2003 233 2182 -18 2464 -18 
C 2598 -18 2938 70 2938 567 
L 2938 920 
L 2822 920 
L 2822 562 
C 2822 178 2650 128 2566 128 
C 2304 128 2304 458 2304 738 
L 2304 1653 
z
M 1965 870 
C 1965 317 1568 38 1216 38 
C 896 38 646 275 646 570 
C 646 761 730 1100 1101 1305 
C 1408 1478 1760 1504 1965 1504 
L 1965 870 
z
" transform="scale(0.015625)"/>
      </defs>
      <use xlink:href="#CMR17-43" transform="scale(0.996264)"/>
      <use xlink:href="#CMR17-6f" transform="translate(66.509881 0) scale(0.996264)"/>
      <use xlink:href="#CMR17-6e" transform="translate(112.200358 0) scale(0.996264)"/>
      <use xlink:href="#CMR17-73" transform="translate(163.095727 0) scale(0.996264)"/>
      <use xlink:href="#CMR17-74" transform="translate(198.897065 0) scale(0.996264)"/>
      <use xlink:href="#CMR17-61" transform="translate(234.177833 0) scale(0.996264)"/>
      <use xlink:href="#CMR17-6e" transform="translate(279.86831 0) scale(0.996264)"/>
      <use xlink:href="#CMR17-74" transform="translate(328.161226 0) scale(0.996264)"/>
     </g>
    </g>
    <g id="line2d_20">
     <path d="M 388.116095 47.117987 
L 400.116095 47.117987 
L 412.116095 47.117987 
" style="fill: none; stroke: #ff7c00; stroke-width: 1.5; stroke-linecap: round"/>
    </g>
    <g id="text_7">
     <!-- (-ve) Constant -->
     <g style="fill: #262626" transform="translate(421.716095 51.317987) scale(0.12 -0.12)">
      <defs>
       <path id="CMR17-2d" d="M 1632 1216 
L 1632 1496 
L 26 1496 
L 26 1216 
L 1632 1216 
z
" transform="scale(0.015625)"/>
       <path id="CMR17-76" d="M 2502 2163 
C 2560 2304 2662 2560 3034 2560 
L 3034 2726 
C 2912 2726 2752 2726 2630 2726 
C 2496 2726 2285 2726 2157 2732 
L 2157 2566 
C 2317 2553 2406 2477 2406 2311 
C 2406 2253 2406 2240 2368 2151 
L 1664 377 
L 902 2286 
C 864 2369 864 2381 864 2407 
C 864 2560 1075 2560 1171 2560 
L 1171 2732 
C 1018 2726 736 2726 576 2726 
C 403 2726 205 2726 64 2732 
L 64 2560 
C 307 2560 442 2560 518 2362 
L 1446 44 
C 1485 -51 1491 -64 1549 -64 
C 1606 -64 1613 -51 1651 44 
L 2502 2163 
z
" transform="scale(0.015625)"/>
      </defs>
      <use xlink:href="#CMR17-28" transform="scale(0.996264)"/>
      <use xlink:href="#CMR17-2d" transform="translate(35.280768 0) scale(0.996264)"/>
      <use xlink:href="#CMR17-76" transform="translate(65.356734 0) scale(0.996264)"/>
      <use xlink:href="#CMR17-65" transform="translate(111.047196 0) scale(0.996264)"/>
      <use xlink:href="#CMR17-29" transform="translate(151.532857 0) scale(0.996264)"/>
      <use xlink:href="#CMR17-43" transform="translate(216.889591 0) scale(0.996264)"/>
      <use xlink:href="#CMR17-6f" transform="translate(283.399471 0) scale(0.996264)"/>
      <use xlink:href="#CMR17-6e" transform="translate(329.089948 0) scale(0.996264)"/>
      <use xlink:href="#CMR17-73" transform="translate(379.985318 0) scale(0.996264)"/>
      <use xlink:href="#CMR17-74" transform="translate(415.786656 0) scale(0.996264)"/>
      <use xlink:href="#CMR17-61" transform="translate(451.067424 0) scale(0.996264)"/>
      <use xlink:href="#CMR17-6e" transform="translate(496.757901 0) scale(0.996264)"/>
      <use xlink:href="#CMR17-74" transform="translate(545.050817 0) scale(0.996264)"/>
     </g>
    </g>
    <g id="line2d_21">
     <path d="M 388.116095 64.506779 
L 400.116095 64.506779 
L 412.116095 64.506779 
" style="fill: none; stroke: #1ac938; stroke-width: 1.5; stroke-linecap: round"/>
    </g>
    <g id="text_8">
     <!-- Increasing -->
     <g style="fill: #262626" transform="translate(421.716095 68.706779) scale(0.12 -0.12)">
      <defs>
       <path id="CMR17-49" d="M 1261 3905 
C 1261 4192 1338 4192 1798 4192 
L 1798 4352 
C 1594 4352 1267 4352 1050 4352 
C 832 4352 506 4352 301 4352 
L 301 4192 
C 762 4192 838 4192 838 3905 
L 838 447 
C 838 160 762 160 301 160 
L 301 0 
C 506 0 832 0 1050 0 
C 1267 0 1594 0 1798 0 
L 1798 160 
C 1338 160 1261 160 1261 447 
L 1261 3905 
z
" transform="scale(0.015625)"/>
       <path id="CMR17-63" d="M 2234 2240 
C 2112 2240 1933 2240 1933 2017 
C 1933 1838 2080 1787 2163 1787 
C 2208 1787 2394 1807 2394 2024 
C 2394 2467 1958 2803 1466 2803 
C 787 2803 211 2178 211 1363 
C 211 516 813 -64 1466 -64 
C 2259 -64 2458 677 2458 748 
C 2458 774 2451 793 2406 793 
C 2362 793 2355 787 2330 703 
C 2163 180 1798 51 1523 51 
C 1114 51 621 427 621 1369 
C 621 2338 1094 2688 1472 2688 
C 1722 2688 2093 2573 2234 2240 
z
" transform="scale(0.015625)"/>
       <path id="CMR17-72" d="M 960 1497 
C 960 2112 1222 2688 1702 2688 
C 1747 2688 1792 2682 1837 2662 
C 1837 2662 1696 2617 1696 2452 
C 1696 2298 1818 2234 1914 2234 
C 1990 2234 2131 2279 2131 2458 
C 2131 2663 1926 2790 1709 2790 
C 1222 2790 1011 2317 947 2093 
L 941 2093 
L 941 2790 
L 198 2720 
L 198 2554 
C 576 2554 634 2515 634 2208 
L 634 428 
C 634 184 608 153 198 153 
L 198 -13 
C 352 0 646 0 813 0 
C 998 0 1325 0 1498 -13 
L 1498 153 
C 1037 153 960 153 960 440 
L 960 1497 
z
" transform="scale(0.015625)"/>
       <path id="CMR17-67" d="M 710 1164 
C 832 1068 1043 960 1299 960 
C 1805 960 2240 1357 2240 1888 
C 2240 2054 2189 2310 1997 2509 
C 2176 2692 2438 2752 2586 2752 
C 2611 2752 2650 2752 2682 2734 
C 2656 2728 2598 2703 2598 2605 
C 2598 2527 2656 2471 2739 2471 
C 2835 2471 2886 2533 2886 2614 
C 2886 2731 2790 2854 2586 2854 
C 2330 2854 2106 2738 1926 2580 
C 1734 2753 1504 2816 1299 2816 
C 794 2816 358 2419 358 1888 
C 358 1522 570 1292 634 1228 
C 442 1004 442 743 442 711 
C 442 545 506 302 723 168 
C 390 85 128 -169 128 -486 
C 128 -943 736 -1280 1466 -1280 
C 2170 -1280 2803 -956 2803 -479 
C 2803 384 1856 384 1363 384 
C 1216 384 954 384 922 391 
C 723 423 589 602 589 826 
C 589 883 589 1024 710 1164 
z
M 1299 1068 
C 736 1068 736 1760 736 1889 
C 736 2016 736 2708 1299 2708 
C 1862 2708 1862 2016 1862 1889 
C 1862 1760 1862 1068 1299 1068 
z
M 1466 -1171 
C 826 -1171 384 -835 384 -486 
C 384 -289 493 -105 634 -4 
C 794 104 858 104 1293 104 
C 1818 104 2547 104 2547 -486 
C 2547 -835 2106 -1171 1466 -1171 
z
" transform="scale(0.015625)"/>
      </defs>
      <use xlink:href="#CMR17-49" transform="scale(0.996264)"/>
      <use xlink:href="#CMR17-6e" transform="translate(32.638409 0) scale(0.996264)"/>
      <use xlink:href="#CMR17-63" transform="translate(83.533779 0) scale(0.996264)"/>
      <use xlink:href="#CMR17-72" transform="translate(124.019439 0) scale(0.996264)"/>
      <use xlink:href="#CMR17-65" transform="translate(159.300207 0) scale(0.996264)"/>
      <use xlink:href="#CMR17-61" transform="translate(199.785868 0) scale(0.996264)"/>
      <use xlink:href="#CMR17-73" transform="translate(245.476345 0) scale(0.996264)"/>
      <use xlink:href="#CMR17-69" transform="translate(281.277682 0) scale(0.996264)"/>
      <use xlink:href="#CMR17-6e" transform="translate(306.148741 0) scale(0.996264)"/>
      <use xlink:href="#CMR17-67" transform="translate(357.044111 0) scale(0.996264)"/>
     </g>
    </g>
    <g id="line2d_22">
     <path d="M 388.116095 81.231375 
L 400.116095 81.231375 
L 412.116095 81.231375 
" style="fill: none; stroke: #e8000b; stroke-width: 1.5; stroke-linecap: round"/>
    </g>
    <g id="text_9">
     <!-- Sinusoidal -->
     <g style="fill: #262626" transform="translate(421.716095 85.431375) scale(0.12 -0.12)">
      <defs>
       <path id="CMR17-53" d="M 2803 4290 
C 2803 4404 2797 4411 2758 4411 
C 2720 4411 2707 4385 2682 4328 
L 2490 3907 
C 2246 4257 1875 4416 1472 4416 
C 819 4416 294 3901 294 3253 
C 294 3056 339 2776 557 2510 
C 794 2218 1018 2167 1530 2033 
C 1722 1982 2042 1899 2106 1874 
C 2470 1722 2662 1341 2662 985 
C 2662 527 2336 38 1779 38 
C 1094 38 454 419 410 1311 
C 403 1413 397 1419 352 1419 
C 301 1419 294 1413 294 1285 
L 294 -1 
C 294 -115 301 -122 339 -122 
C 384 -122 397 -90 486 108 
C 493 127 493 140 614 381 
C 934 -39 1472 -128 1779 -128 
C 2477 -128 2970 451 2970 1124 
C 2970 1454 2848 1708 2778 1823 
C 2509 2230 2221 2306 1914 2382 
C 1869 2402 1856 2402 1498 2490 
C 1152 2579 1005 2624 845 2796 
C 666 2992 602 3196 602 3399 
C 602 3812 934 4263 1478 4263 
C 2157 4263 2579 3786 2675 2993 
C 2694 2878 2701 2872 2746 2872 
C 2803 2872 2803 2891 2803 2999 
L 2803 4290 
z
" transform="scale(0.015625)"/>
       <path id="CMR17-75" d="M 1882 2693 
L 1882 2528 
C 2259 2528 2317 2489 2317 2186 
L 2317 1032 
C 2317 500 2029 38 1555 38 
C 1030 38 986 348 986 678 
L 986 2763 
L 211 2693 
L 211 2528 
C 467 2528 640 2528 646 2274 
L 646 1058 
C 646 633 646 361 813 183 
C 896 101 1056 -64 1517 -64 
C 2061 -64 2272 377 2323 506 
L 2330 506 
L 2330 -63 
L 3091 -63 
L 3091 128 
C 2714 128 2656 166 2656 473 
L 2656 2763 
L 1882 2693 
z
" transform="scale(0.015625)"/>
      </defs>
      <use xlink:href="#CMR17-53" transform="scale(0.996264)"/>
      <use xlink:href="#CMR17-69" transform="translate(50.89537 0) scale(0.996264)"/>
      <use xlink:href="#CMR17-6e" transform="translate(75.766428 0) scale(0.996264)"/>
      <use xlink:href="#CMR17-75" transform="translate(124.059344 0) scale(0.996264)"/>
      <use xlink:href="#CMR17-73" transform="translate(174.954714 0) scale(0.996264)"/>
      <use xlink:href="#CMR17-6f" transform="translate(210.756052 0) scale(0.996264)"/>
      <use xlink:href="#CMR17-69" transform="translate(256.446529 0) scale(0.996264)"/>
      <use xlink:href="#CMR17-64" transform="translate(281.317587 0) scale(0.996264)"/>
      <use xlink:href="#CMR17-61" transform="translate(332.212957 0) scale(0.996264)"/>
      <use xlink:href="#CMR17-6c" transform="translate(377.903434 0) scale(0.996264)"/>
     </g>
    </g>
   </g>
  </g>
  <g id="axes_2">
   <g id="patch_8">
    <path d="M 94.686598 204.768829 
L 376.480222 204.768829 
L 376.480222 111.96032 
L 94.686598 111.96032 
z
" style="fill: #ffffff"/>
   </g>
   <g id="matplotlib.axis_3">
    <g id="xtick_12">
     <g id="line2d_23">
      <g>
       <use xlink:href="#m8ce502c75f" x="107.495399" y="204.768829" style="fill: #262626; stroke: #262626; stroke-width: 1.25"/>
      </g>
     </g>
    </g>
    <g id="xtick_13">
     <g id="line2d_24">
      <g>
       <use xlink:href="#m8ce502c75f" x="133.113002" y="204.768829" style="fill: #262626; stroke: #262626; stroke-width: 1.25"/>
      </g>
     </g>
    </g>
    <g id="xtick_14">
     <g id="line2d_25">
      <g>
       <use xlink:href="#m8ce502c75f" x="158.730604" y="204.768829" style="fill: #262626; stroke: #262626; stroke-width: 1.25"/>
      </g>
     </g>
    </g>
    <g id="xtick_15">
     <g id="line2d_26">
      <g>
       <use xlink:href="#m8ce502c75f" x="184.348206" y="204.768829" style="fill: #262626; stroke: #262626; stroke-width: 1.25"/>
      </g>
     </g>
    </g>
    <g id="xtick_16">
     <g id="line2d_27">
      <g>
       <use xlink:href="#m8ce502c75f" x="209.965808" y="204.768829" style="fill: #262626; stroke: #262626; stroke-width: 1.25"/>
      </g>
     </g>
    </g>
    <g id="xtick_17">
     <g id="line2d_28">
      <g>
       <use xlink:href="#m8ce502c75f" x="235.58341" y="204.768829" style="fill: #262626; stroke: #262626; stroke-width: 1.25"/>
      </g>
     </g>
    </g>
    <g id="xtick_18">
     <g id="line2d_29">
      <g>
       <use xlink:href="#m8ce502c75f" x="261.201013" y="204.768829" style="fill: #262626; stroke: #262626; stroke-width: 1.25"/>
      </g>
     </g>
    </g>
    <g id="xtick_19">
     <g id="line2d_30">
      <g>
       <use xlink:href="#m8ce502c75f" x="286.818615" y="204.768829" style="fill: #262626; stroke: #262626; stroke-width: 1.25"/>
      </g>
     </g>
    </g>
    <g id="xtick_20">
     <g id="line2d_31">
      <g>
       <use xlink:href="#m8ce502c75f" x="312.436217" y="204.768829" style="fill: #262626; stroke: #262626; stroke-width: 1.25"/>
      </g>
     </g>
    </g>
    <g id="xtick_21">
     <g id="line2d_32">
      <g>
       <use xlink:href="#m8ce502c75f" x="338.053819" y="204.768829" style="fill: #262626; stroke: #262626; stroke-width: 1.25"/>
      </g>
     </g>
    </g>
    <g id="xtick_22">
     <g id="line2d_33">
      <g>
       <use xlink:href="#m8ce502c75f" x="363.671421" y="204.768829" style="fill: #262626; stroke: #262626; stroke-width: 1.25"/>
      </g>
     </g>
    </g>
   </g>
   <g id="matplotlib.axis_4">
    <g id="ytick_4">
     <g id="line2d_34">
      <g>
       <use xlink:href="#m95bbd8a79f" x="94.686598" y="192.59732" style="fill: #262626; stroke: #262626; stroke-width: 1.25"/>
      </g>
     </g>
     <g id="text_10">
      <!-- $\mathdefault{−0.05}$ -->
      <g style="fill: #262626" transform="translate(55.077477 196.748409) scale(0.12 -0.12)">
       <defs>
        <path id="CMMI12-3a" d="M 1178 307 
C 1178 492 1024 619 870 619 
C 685 619 557 466 557 313 
C 557 128 710 0 864 0 
C 1050 0 1178 153 1178 307 
z
" transform="scale(0.015625)"/>
       </defs>
       <use xlink:href="#CMSY10-0" transform="scale(0.996264)"/>
       <use xlink:href="#CMR17-30" transform="translate(77.487468 0) scale(0.996264)"/>
       <use xlink:href="#CMMI12-3a" transform="translate(123.177945 0) scale(0.996264)"/>
       <use xlink:href="#CMR17-30" transform="translate(150.275122 0) scale(0.996264)"/>
       <use xlink:href="#CMR17-35" transform="translate(195.965599 0) scale(0.996264)"/>
      </g>
     </g>
    </g>
    <g id="ytick_5">
     <g id="line2d_35">
      <g>
       <use xlink:href="#m95bbd8a79f" x="94.686598" y="176.46992" style="fill: #262626; stroke: #262626; stroke-width: 1.25"/>
      </g>
     </g>
     <g id="text_11">
      <!-- $\mathdefault{−0.03}$ -->
      <g style="fill: #262626" transform="translate(55.077477 180.621009) scale(0.12 -0.12)">
       <defs>
        <path id="CMR17-33" d="M 1414 2157 
C 1984 2157 2234 1662 2234 1090 
C 2234 320 1824 25 1453 25 
C 1114 25 563 194 390 693 
C 422 680 454 680 486 680 
C 640 680 755 782 755 948 
C 755 1133 614 1216 486 1216 
C 378 1216 211 1165 211 926 
C 211 335 787 -128 1466 -128 
C 2176 -128 2720 430 2720 1085 
C 2720 1707 2208 2157 1600 2227 
C 2086 2328 2554 2756 2554 3329 
C 2554 3820 2048 4179 1472 4179 
C 890 4179 378 3829 378 3329 
C 378 3110 544 3072 627 3072 
C 762 3072 877 3155 877 3321 
C 877 3486 762 3569 627 3569 
C 602 3569 570 3569 544 3557 
C 730 3959 1235 4032 1459 4032 
C 1683 4032 2106 3925 2106 3320 
C 2106 3143 2080 2828 1862 2550 
C 1670 2304 1453 2304 1242 2284 
C 1210 2284 1062 2269 1037 2269 
C 992 2263 966 2257 966 2208 
C 966 2163 973 2157 1101 2157 
L 1414 2157 
z
" transform="scale(0.015625)"/>
       </defs>
       <use xlink:href="#CMSY10-0" transform="scale(0.996264)"/>
       <use xlink:href="#CMR17-30" transform="translate(77.487468 0) scale(0.996264)"/>
       <use xlink:href="#CMMI12-3a" transform="translate(123.177945 0) scale(0.996264)"/>
       <use xlink:href="#CMR17-30" transform="translate(150.275122 0) scale(0.996264)"/>
       <use xlink:href="#CMR17-33" transform="translate(195.965599 0) scale(0.996264)"/>
      </g>
     </g>
    </g>
    <g id="ytick_6">
     <g id="line2d_36">
      <g>
       <use xlink:href="#m95bbd8a79f" x="94.686598" y="160.34252" style="fill: #262626; stroke: #262626; stroke-width: 1.25"/>
      </g>
     </g>
     <g id="text_12">
      <!-- $\mathdefault{−0.01}$ -->
      <g style="fill: #262626" transform="translate(55.077477 164.493609) scale(0.12 -0.12)">
       <defs>
        <path id="CMR17-31" d="M 1702 4058 
C 1702 4192 1696 4192 1606 4192 
C 1357 3916 979 3827 621 3827 
C 602 3827 570 3827 563 3808 
C 557 3795 557 3782 557 3648 
C 755 3648 1088 3686 1344 3839 
L 1344 461 
C 1344 236 1331 160 781 160 
L 589 160 
L 589 0 
C 896 0 1216 0 1523 0 
C 1830 0 2150 0 2458 0 
L 2458 160 
L 2266 160 
C 1715 160 1702 230 1702 458 
L 1702 4058 
z
" transform="scale(0.015625)"/>
       </defs>
       <use xlink:href="#CMSY10-0" transform="scale(0.996264)"/>
       <use xlink:href="#CMR17-30" transform="translate(77.487468 0) scale(0.996264)"/>
       <use xlink:href="#CMMI12-3a" transform="translate(123.177945 0) scale(0.996264)"/>
       <use xlink:href="#CMR17-30" transform="translate(150.275122 0) scale(0.996264)"/>
       <use xlink:href="#CMR17-31" transform="translate(195.965599 0) scale(0.996264)"/>
      </g>
     </g>
    </g>
    <g id="ytick_7">
     <g id="line2d_37">
      <g>
       <use xlink:href="#m95bbd8a79f" x="94.686598" y="144.21512" style="fill: #262626; stroke: #262626; stroke-width: 1.25"/>
      </g>
     </g>
     <g id="text_13">
      <!-- $\mathdefault{0.01}$ -->
      <g style="fill: #262626" transform="translate(64.375966 148.366209) scale(0.12 -0.12)">
       <use xlink:href="#CMR17-30" transform="scale(0.996264)"/>
       <use xlink:href="#CMMI12-3a" transform="translate(45.690477 0) scale(0.996264)"/>
       <use xlink:href="#CMR17-30" transform="translate(72.787654 0) scale(0.996264)"/>
       <use xlink:href="#CMR17-31" transform="translate(118.478131 0) scale(0.996264)"/>
      </g>
     </g>
    </g>
    <g id="ytick_8">
     <g id="line2d_38">
      <g>
       <use xlink:href="#m95bbd8a79f" x="94.686598" y="128.08772" style="fill: #262626; stroke: #262626; stroke-width: 1.25"/>
      </g>
     </g>
     <g id="text_14">
      <!-- $\mathdefault{0.03}$ -->
      <g style="fill: #262626" transform="translate(64.375966 132.238809) scale(0.12 -0.12)">
       <use xlink:href="#CMR17-30" transform="scale(0.996264)"/>
       <use xlink:href="#CMMI12-3a" transform="translate(45.690477 0) scale(0.996264)"/>
       <use xlink:href="#CMR17-30" transform="translate(72.787654 0) scale(0.996264)"/>
       <use xlink:href="#CMR17-33" transform="translate(118.478131 0) scale(0.996264)"/>
      </g>
     </g>
    </g>
    <g id="ytick_9">
     <g id="line2d_39">
      <g>
       <use xlink:href="#m95bbd8a79f" x="94.686598" y="111.96032" style="fill: #262626; stroke: #262626; stroke-width: 1.25"/>
      </g>
     </g>
     <g id="text_15">
      <!-- $\mathdefault{0.05}$ -->
      <g style="fill: #262626" transform="translate(64.375966 116.111409) scale(0.12 -0.12)">
       <use xlink:href="#CMR17-30" transform="scale(0.996264)"/>
       <use xlink:href="#CMMI12-3a" transform="translate(45.690477 0) scale(0.996264)"/>
       <use xlink:href="#CMR17-30" transform="translate(72.787654 0) scale(0.996264)"/>
       <use xlink:href="#CMR17-35" transform="translate(118.478131 0) scale(0.996264)"/>
      </g>
     </g>
    </g>
    <g id="text_16">
     <!-- $\alpha_y(t)$ -->
     <g style="fill: #262626" transform="translate(9.090522 161.830756) scale(0.15 -0.15)">
      <defs>
       <path id="CMMI12-b" d="M 2963 1616 
C 2963 2235 2611 2815 1933 2815 
C 1094 2815 256 1902 256 996 
C 256 441 602 -64 1254 -64 
C 1651 -64 2125 89 2579 472 
C 2669 115 2867 -64 3142 -64 
C 3488 -64 3661 294 3661 377 
C 3661 434 3616 434 3597 434 
C 3546 434 3539 415 3520 364 
C 3462 204 3315 64 3162 64 
C 2963 64 2963 472 2963 862 
C 3616 1641 3770 2446 3770 2452 
C 3770 2510 3718 2510 3699 2510 
C 3642 2510 3635 2491 3610 2376 
C 3526 2095 3360 1597 2963 1073 
L 2963 1616 
z
M 2560 626 
C 1997 121 1491 64 1267 64 
C 813 64 685 466 685 766 
C 685 1040 826 1692 1024 2044 
C 1286 2491 1645 2688 1933 2688 
C 2554 2688 2554 1877 2554 1341 
C 2554 1182 2547 1016 2547 856 
C 2547 728 2554 696 2560 626 
z
" transform="scale(0.015625)"/>
       <path id="CMMI12-79" d="M 1683 -700 
C 1510 -939 1261 -1152 947 -1152 
C 870 -1152 563 -1152 467 -889 
C 486 -895 518 -895 531 -895 
C 723 -895 851 -729 851 -582 
C 851 -435 730 -384 634 -384 
C 531 -384 307 -458 307 -759 
C 307 -1071 582 -1286 947 -1286 
C 1587 -1286 2234 -700 2413 6 
L 3040 2485 
C 3046 2517 3059 2556 3059 2594 
C 3059 2689 2982 2753 2886 2753 
C 2829 2753 2694 2727 2643 2535 
L 2170 658 
C 2138 543 2138 530 2086 460 
C 1958 281 1747 64 1440 64 
C 1082 64 1050 415 1050 588 
C 1050 952 1222 1443 1395 1903 
C 1466 2088 1504 2178 1504 2305 
C 1504 2574 1312 2816 998 2816 
C 410 2816 173 1890 173 1839 
C 173 1814 198 1782 243 1782 
C 301 1782 307 1807 333 1897 
C 486 2433 730 2689 979 2689 
C 1037 2689 1146 2689 1146 2478 
C 1146 2312 1075 2127 979 1884 
C 666 1047 666 837 666 683 
C 666 77 1101 -64 1421 -64 
C 1606 -64 1837 -6 2061 230 
L 2067 224 
C 1971 -147 1907 -392 1683 -700 
z
" transform="scale(0.015625)"/>
      </defs>
      <use xlink:href="#CMMI12-b" transform="scale(0.996264)"/>
      <use xlink:href="#CMMI12-79" transform="translate(62.046728 -14.943915) scale(0.697382)"/>
      <use xlink:href="#CMR17-28" transform="translate(98.341835 0) scale(0.996264)"/>
      <use xlink:href="#CMMI12-74" transform="translate(133.622603 0) scale(0.996264)"/>
      <use xlink:href="#CMR17-29" transform="translate(168.848933 0) scale(0.996264)"/>
     </g>
    </g>
   </g>
   <g id="line2d_40">
    <path d="M 107.495399 152.272308 
L 107.751575 146.248827 
L 108.007751 146.814708 
L 108.520104 146.511503 
L 109.288632 146.350273 
L 110.825688 146.107133 
L 111.850392 145.657966 
L 112.875096 144.958478 
L 116.205384 142.413153 
L 117.486264 141.822407 
L 121.328905 140.350831 
L 125.427721 138.261903 
L 127.989481 137.457033 
L 130.295065 136.615108 
L 133.88153 135.257549 
L 142.079162 132.908897 
L 147.202683 131.714476 
L 152.326203 130.582637 
L 162.573244 128.749459 
L 171.795581 127.415368 
L 181.53027 126.265151 
L 192.033487 125.253924 
L 203.817584 124.338875 
L 217.907265 123.473706 
L 234.30253 122.697644 
L 253.771908 122.007375 
L 277.083926 121.410981 
L 305.77564 120.907745 
L 342.152635 120.502452 
L 363.671421 120.342576 
L 363.671421 120.342576 
" clip-path="url(#p52754b89c3)" style="fill: none; stroke: #023eff; stroke-width: 1.5; stroke-linecap: round"/>
   </g>
   <g id="line2d_41">
    <path d="M 107.495399 152.285112 
L 107.751575 158.865527 
L 108.007751 158.220322 
L 110.825688 162.266228 
L 111.850392 163.428879 
L 112.875096 164.312279 
L 115.18068 165.850613 
L 116.717736 167.050493 
L 121.841257 171.396483 
L 127.477129 175.032866 
L 129.782713 176.485701 
L 132.60065 177.925203 
L 140.542106 181.790666 
L 148.483563 184.90078 
L 155.656492 187.200133 
L 161.292364 188.717139 
L 166.928237 190.054205 
L 174.357341 191.558516 
L 182.298798 192.899232 
L 190.752607 194.085759 
L 199.974943 195.155572 
L 210.47816 196.149859 
L 222.774609 197.081077 
L 236.86429 197.916884 
L 253.515732 198.671973 
L 273.241286 199.334738 
L 297.065656 199.904527 
L 326.525898 200.378283 
L 363.671421 200.748531 
L 363.671421 200.748531 
" clip-path="url(#p52754b89c3)" style="fill: none; stroke: #ff7c00; stroke-width: 1.5; stroke-linecap: round"/>
   </g>
   <g id="line2d_42">
    <path d="M 107.495399 152.278728 
L 108.007751 152.460979 
L 108.77628 152.680001 
L 109.800984 153.238219 
L 110.825688 153.764469 
L 111.850392 154.018298 
L 112.875096 154.033256 
L 116.717736 153.70698 
L 118.254792 153.97823 
L 120.304201 154.326885 
L 121.841257 154.330799 
L 125.427721 154.184438 
L 130.551241 154.392011 
L 134.650058 154.259113 
L 138.748874 154.231042 
L 161.036188 152.887032 
L 170.514701 152.048547 
L 183.067326 150.759351 
L 200.743471 148.707062 
L 222.262257 145.962693 
L 250.953972 142.063652 
L 297.578008 135.473355 
L 363.671421 126.058393 
L 363.671421 126.058393 
" clip-path="url(#p52754b89c3)" style="fill: none; stroke: #1ac938; stroke-width: 1.5; stroke-linecap: round"/>
   </g>
   <g id="line2d_43">
    <path d="M 107.495399 152.278711 
L 108.007751 152.375094 
L 108.520104 152.414987 
L 109.288632 152.658967 
L 110.825688 153.267232 
L 111.594216 153.310358 
L 112.362744 153.175472 
L 113.387448 152.764675 
L 116.205384 151.4206 
L 117.486264 151.097475 
L 120.304201 150.515918 
L 121.585081 149.966556 
L 126.452425 147.558719 
L 129.014185 146.495656 
L 131.319769 145.240712 
L 134.137706 143.739193 
L 146.690331 137.872033 
L 150.789147 136.255591 
L 154.119435 135.219523 
L 157.962076 134.234511 
L 160.780012 133.73131 
L 164.1103 133.376861 
L 167.184413 133.266996 
L 170.002349 133.387937 
L 173.076461 133.747313 
L 176.150573 134.340943 
L 179.224686 135.184048 
L 182.298798 136.260841 
L 185.37291 137.565686 
L 188.703198 139.231584 
L 192.289663 141.292594 
L 195.876127 143.610357 
L 199.974943 146.533058 
L 204.586112 150.106663 
L 210.47816 154.978279 
L 224.824017 166.97579 
L 229.17901 170.265091 
L 233.02165 172.900011 
L 236.608114 175.084883 
L 239.938403 176.844804 
L 243.012515 178.218736 
L 246.086627 179.337082 
L 248.904564 180.128083 
L 251.7225 180.688515 
L 254.540436 181.014187 
L 257.358372 181.102907 
L 260.176308 180.954403 
L 262.994245 180.570349 
L 265.812181 179.954349 
L 268.630117 179.111983 
L 271.704229 177.943951 
L 274.778342 176.528705 
L 278.10863 174.735627 
L 281.695094 172.531234 
L 285.537735 169.898075 
L 290.148903 166.446467 
L 296.297128 161.53589 
L 307.312697 152.709807 
L 312.180041 149.131618 
L 316.278857 146.394854 
L 319.865322 144.25583 
L 323.19561 142.513734 
L 326.525898 141.029916 
L 329.60001 139.905957 
L 332.674123 139.030426 
L 335.492059 138.454256 
L 338.309995 138.099589 
L 341.127931 137.970022 
L 343.945868 138.06636 
L 346.763804 138.388065 
L 349.58174 138.932031 
L 352.399676 139.693837 
L 355.473789 140.76504 
L 358.547901 142.075318 
L 361.878189 143.749024 
L 363.671421 144.752444 
L 363.671421 144.752444 
" clip-path="url(#p52754b89c3)" style="fill: none; stroke: #e8000b; stroke-width: 1.5; stroke-linecap: round"/>
   </g>
   <g id="patch_9">
    <path d="M 94.686598 204.768829 
L 94.686598 111.96032 
" style="fill: none; stroke: #262626; stroke-width: 1.25; stroke-linejoin: miter; stroke-linecap: square"/>
   </g>
   <g id="patch_10">
    <path d="M 376.480222 204.768829 
L 376.480222 111.96032 
" style="fill: none; stroke: #262626; stroke-width: 1.25; stroke-linejoin: miter; stroke-linecap: square"/>
   </g>
   <g id="patch_11">
    <path d="M 94.686598 204.768829 
L 376.480222 204.768829 
" style="fill: none; stroke: #262626; stroke-width: 1.25; stroke-linejoin: miter; stroke-linecap: square"/>
   </g>
   <g id="patch_12">
    <path d="M 94.686598 111.96032 
L 376.480222 111.96032 
" style="fill: none; stroke: #262626; stroke-width: 1.25; stroke-linejoin: miter; stroke-linecap: square"/>
   </g>
  </g>
  <g id="axes_3">
   <g id="patch_13">
    <path d="M 94.686598 309.577819 
L 376.480222 309.577819 
L 376.480222 216.769309 
L 94.686598 216.769309 
z
" style="fill: #ffffff"/>
   </g>
   <g id="matplotlib.axis_5">
    <g id="xtick_23">
     <g id="line2d_44">
      <g>
       <use xlink:href="#m8ce502c75f" x="107.495399" y="309.577819" style="fill: #262626; stroke: #262626; stroke-width: 1.25"/>
      </g>
     </g>
     <g id="text_17">
      <!-- $\mathdefault{0.0}$ -->
      <g style="fill: #262626" transform="translate(100.016579 327.379999) scale(0.12 -0.12)">
       <use xlink:href="#CMR17-30" transform="scale(0.996264)"/>
       <use xlink:href="#CMMI12-3a" transform="translate(45.690477 0) scale(0.996264)"/>
       <use xlink:href="#CMR17-30" transform="translate(72.787654 0) scale(0.996264)"/>
      </g>
     </g>
    </g>
    <g id="xtick_24">
     <g id="line2d_45">
      <g>
       <use xlink:href="#m8ce502c75f" x="133.113002" y="309.577819" style="fill: #262626; stroke: #262626; stroke-width: 1.25"/>
      </g>
     </g>
     <g id="text_18">
      <!-- $\mathdefault{0.1}$ -->
      <g style="fill: #262626" transform="translate(125.634181 327.379999) scale(0.12 -0.12)">
       <use xlink:href="#CMR17-30" transform="scale(0.996264)"/>
       <use xlink:href="#CMMI12-3a" transform="translate(45.690477 0) scale(0.996264)"/>
       <use xlink:href="#CMR17-31" transform="translate(72.787654 0) scale(0.996264)"/>
      </g>
     </g>
    </g>
    <g id="xtick_25">
     <g id="line2d_46">
      <g>
       <use xlink:href="#m8ce502c75f" x="158.730604" y="309.577819" style="fill: #262626; stroke: #262626; stroke-width: 1.25"/>
      </g>
     </g>
     <g id="text_19">
      <!-- $\mathdefault{0.2}$ -->
      <g style="fill: #262626" transform="translate(151.251783 327.379999) scale(0.12 -0.12)">
       <use xlink:href="#CMR17-30" transform="scale(0.996264)"/>
       <use xlink:href="#CMMI12-3a" transform="translate(45.690477 0) scale(0.996264)"/>
       <use xlink:href="#CMR17-32" transform="translate(72.787654 0) scale(0.996264)"/>
      </g>
     </g>
    </g>
    <g id="xtick_26">
     <g id="line2d_47">
      <g>
       <use xlink:href="#m8ce502c75f" x="184.348206" y="309.577819" style="fill: #262626; stroke: #262626; stroke-width: 1.25"/>
      </g>
     </g>
     <g id="text_20">
      <!-- $\mathdefault{0.3}$ -->
      <g style="fill: #262626" transform="translate(176.869385 327.379999) scale(0.12 -0.12)">
       <use xlink:href="#CMR17-30" transform="scale(0.996264)"/>
       <use xlink:href="#CMMI12-3a" transform="translate(45.690477 0) scale(0.996264)"/>
       <use xlink:href="#CMR17-33" transform="translate(72.787654 0) scale(0.996264)"/>
      </g>
     </g>
    </g>
    <g id="xtick_27">
     <g id="line2d_48">
      <g>
       <use xlink:href="#m8ce502c75f" x="209.965808" y="309.577819" style="fill: #262626; stroke: #262626; stroke-width: 1.25"/>
      </g>
     </g>
     <g id="text_21">
      <!-- $\mathdefault{0.4}$ -->
      <g style="fill: #262626" transform="translate(202.486987 327.379999) scale(0.12 -0.12)">
       <defs>
        <path id="CMR17-34" d="M 2150 4122 
C 2150 4256 2144 4256 2029 4256 
L 128 1254 
L 128 1088 
L 1779 1088 
L 1779 457 
C 1779 224 1766 160 1318 160 
L 1197 160 
L 1197 0 
C 1402 0 1747 0 1965 0 
C 2182 0 2528 0 2733 0 
L 2733 160 
L 2611 160 
C 2163 160 2150 224 2150 457 
L 2150 1088 
L 2803 1088 
L 2803 1254 
L 2150 1254 
L 2150 4122 
z
M 1798 3703 
L 1798 1254 
L 256 1254 
L 1798 3703 
z
" transform="scale(0.015625)"/>
       </defs>
       <use xlink:href="#CMR17-30" transform="scale(0.996264)"/>
       <use xlink:href="#CMMI12-3a" transform="translate(45.690477 0) scale(0.996264)"/>
       <use xlink:href="#CMR17-34" transform="translate(72.787654 0) scale(0.996264)"/>
      </g>
     </g>
    </g>
    <g id="xtick_28">
     <g id="line2d_49">
      <g>
       <use xlink:href="#m8ce502c75f" x="235.58341" y="309.577819" style="fill: #262626; stroke: #262626; stroke-width: 1.25"/>
      </g>
     </g>
     <g id="text_22">
      <!-- $\mathdefault{0.5}$ -->
      <g style="fill: #262626" transform="translate(228.10459 327.379999) scale(0.12 -0.12)">
       <use xlink:href="#CMR17-30" transform="scale(0.996264)"/>
       <use xlink:href="#CMMI12-3a" transform="translate(45.690477 0) scale(0.996264)"/>
       <use xlink:href="#CMR17-35" transform="translate(72.787654 0) scale(0.996264)"/>
      </g>
     </g>
    </g>
    <g id="xtick_29">
     <g id="line2d_50">
      <g>
       <use xlink:href="#m8ce502c75f" x="261.201013" y="309.577819" style="fill: #262626; stroke: #262626; stroke-width: 1.25"/>
      </g>
     </g>
     <g id="text_23">
      <!-- $\mathdefault{0.6}$ -->
      <g style="fill: #262626" transform="translate(253.722192 327.379999) scale(0.12 -0.12)">
       <defs>
        <path id="CMR17-36" d="M 678 2176 
C 678 3690 1395 4032 1811 4032 
C 1946 4032 2272 4009 2400 3776 
C 2298 3776 2106 3776 2106 3553 
C 2106 3381 2246 3323 2336 3323 
C 2394 3323 2566 3348 2566 3560 
C 2566 3954 2246 4179 1805 4179 
C 1043 4179 243 3390 243 1984 
C 243 253 966 -128 1478 -128 
C 2099 -128 2688 427 2688 1283 
C 2688 2081 2170 2662 1517 2662 
C 1126 2662 838 2407 678 1960 
L 678 2176 
z
M 1478 25 
C 691 25 691 1200 691 1436 
C 691 1896 909 2560 1504 2560 
C 1613 2560 1926 2560 2138 2120 
C 2253 1870 2253 1609 2253 1289 
C 2253 944 2253 690 2118 434 
C 1978 171 1773 25 1478 25 
z
" transform="scale(0.015625)"/>
       </defs>
       <use xlink:href="#CMR17-30" transform="scale(0.996264)"/>
       <use xlink:href="#CMMI12-3a" transform="translate(45.690477 0) scale(0.996264)"/>
       <use xlink:href="#CMR17-36" transform="translate(72.787654 0) scale(0.996264)"/>
      </g>
     </g>
    </g>
    <g id="xtick_30">
     <g id="line2d_51">
      <g>
       <use xlink:href="#m8ce502c75f" x="286.818615" y="309.577819" style="fill: #262626; stroke: #262626; stroke-width: 1.25"/>
      </g>
     </g>
     <g id="text_24">
      <!-- $\mathdefault{0.7}$ -->
      <g style="fill: #262626" transform="translate(279.339794 327.379999) scale(0.12 -0.12)">
       <defs>
        <path id="CMR17-37" d="M 2886 3941 
L 2886 4081 
L 1382 4081 
C 634 4081 621 4165 595 4288 
L 480 4288 
L 294 3094 
L 410 3094 
C 429 3215 474 3540 550 3661 
C 589 3712 1062 3712 1171 3712 
L 2579 3712 
L 1869 2661 
C 1395 1954 1069 999 1069 165 
C 1069 89 1069 -128 1299 -128 
C 1530 -128 1530 89 1530 171 
L 1530 465 
C 1530 1508 1709 2196 2003 2636 
L 2886 3941 
z
" transform="scale(0.015625)"/>
       </defs>
       <use xlink:href="#CMR17-30" transform="scale(0.996264)"/>
       <use xlink:href="#CMMI12-3a" transform="translate(45.690477 0) scale(0.996264)"/>
       <use xlink:href="#CMR17-37" transform="translate(72.787654 0) scale(0.996264)"/>
      </g>
     </g>
    </g>
    <g id="xtick_31">
     <g id="line2d_52">
      <g>
       <use xlink:href="#m8ce502c75f" x="312.436217" y="309.577819" style="fill: #262626; stroke: #262626; stroke-width: 1.25"/>
      </g>
     </g>
     <g id="text_25">
      <!-- $\mathdefault{0.8}$ -->
      <g style="fill: #262626" transform="translate(304.957396 327.379999) scale(0.12 -0.12)">
       <defs>
        <path id="CMR17-38" d="M 1741 2264 
C 2144 2467 2554 2773 2554 3263 
C 2554 3841 1990 4179 1472 4179 
C 890 4179 378 3759 378 3180 
C 378 3021 416 2747 666 2505 
C 730 2442 998 2251 1171 2130 
C 883 1983 211 1634 211 934 
C 211 279 838 -128 1459 -128 
C 2144 -128 2720 362 2720 1010 
C 2720 1590 2330 1857 2074 2029 
L 1741 2264 
z
M 902 2822 
C 851 2854 595 3051 595 3351 
C 595 3739 998 4032 1459 4032 
C 1965 4032 2336 3676 2336 3262 
C 2336 2669 1670 2331 1638 2331 
C 1632 2331 1626 2331 1574 2370 
L 902 2822 
z
M 2080 1519 
C 2176 1449 2483 1240 2483 851 
C 2483 381 2010 25 1472 25 
C 890 25 448 438 448 940 
C 448 1443 838 1862 1280 2060 
L 2080 1519 
z
" transform="scale(0.015625)"/>
       </defs>
       <use xlink:href="#CMR17-30" transform="scale(0.996264)"/>
       <use xlink:href="#CMMI12-3a" transform="translate(45.690477 0) scale(0.996264)"/>
       <use xlink:href="#CMR17-38" transform="translate(72.787654 0) scale(0.996264)"/>
      </g>
     </g>
    </g>
    <g id="xtick_32">
     <g id="line2d_53">
      <g>
       <use xlink:href="#m8ce502c75f" x="338.053819" y="309.577819" style="fill: #262626; stroke: #262626; stroke-width: 1.25"/>
      </g>
     </g>
     <g id="text_26">
      <!-- $\mathdefault{0.9}$ -->
      <g style="fill: #262626" transform="translate(330.574998 327.379999) scale(0.12 -0.12)">
       <defs>
        <path id="CMR17-39" d="M 2253 1864 
C 2253 464 1670 31 1190 31 
C 1043 31 685 31 538 294 
C 704 268 826 357 826 518 
C 826 692 685 749 595 749 
C 538 749 365 723 365 506 
C 365 71 742 -128 1203 -128 
C 1939 -128 2688 674 2688 2073 
C 2688 3817 1971 4179 1485 4179 
C 851 4179 243 3628 243 2778 
C 243 1991 762 1408 1414 1408 
C 1952 1408 2189 1903 2253 2112 
L 2253 1864 
z
M 1427 1510 
C 1254 1510 1011 1542 813 1922 
C 678 2169 678 2461 678 2771 
C 678 3146 678 3405 858 3684 
C 947 3817 1114 4032 1485 4032 
C 2240 4032 2240 2885 2240 2632 
C 2240 2182 2035 1510 1427 1510 
z
" transform="scale(0.015625)"/>
       </defs>
       <use xlink:href="#CMR17-30" transform="scale(0.996264)"/>
       <use xlink:href="#CMMI12-3a" transform="translate(45.690477 0) scale(0.996264)"/>
       <use xlink:href="#CMR17-39" transform="translate(72.787654 0) scale(0.996264)"/>
      </g>
     </g>
    </g>
    <g id="xtick_33">
     <g id="line2d_54">
      <g>
       <use xlink:href="#m8ce502c75f" x="363.671421" y="309.577819" style="fill: #262626; stroke: #262626; stroke-width: 1.25"/>
      </g>
     </g>
     <g id="text_27">
      <!-- $\mathdefault{1.0}$ -->
      <g style="fill: #262626" transform="translate(356.1926 327.379999) scale(0.12 -0.12)">
       <use xlink:href="#CMR17-31" transform="scale(0.996264)"/>
       <use xlink:href="#CMMI12-3a" transform="translate(45.690477 0) scale(0.996264)"/>
       <use xlink:href="#CMR17-30" transform="translate(72.787654 0) scale(0.996264)"/>
      </g>
     </g>
    </g>
    <g id="text_28">
     <!-- $\frac{t}{T}$ -->
     <g style="fill: #262626" transform="translate(230.632783 350.128722) scale(0.2 -0.2)">
      <defs>
       <path id="CMMI12-54" d="M 2669 3910 
C 2707 4064 2720 4121 2816 4147 
C 2867 4160 3078 4160 3213 4160 
C 3853 4160 4154 4134 4154 3634 
C 4154 3537 4128 3295 4090 3057 
L 4083 2980 
C 4083 2954 4109 2916 4147 2916 
C 4211 2916 4211 2948 4230 3050 
L 4416 4184 
C 4429 4243 4429 4256 4429 4275 
C 4429 4345 4390 4345 4262 4345 
L 762 4345 
C 614 4345 608 4339 570 4224 
L 179 3070 
C 173 3056 154 2986 154 2980 
C 154 2948 179 2916 218 2916 
C 269 2916 282 2941 307 3024 
C 576 3801 710 4160 1562 4160 
L 1990 4160 
C 2144 4160 2208 4160 2208 4089 
C 2208 4069 2208 4057 2176 3941 
L 1318 499 
C 1254 249 1242 185 563 185 
C 403 185 358 185 358 64 
C 358 0 429 0 461 0 
C 621 0 787 0 947 0 
L 1946 0 
C 2106 0 2278 0 2438 0 
C 2509 0 2573 0 2573 121 
C 2573 185 2528 185 2362 185 
C 1786 185 1786 243 1786 339 
C 1786 346 1786 391 1811 494 
L 2669 3910 
z
" transform="scale(0.015625)"/>
      </defs>
      <use xlink:href="#CMMI12-74" transform="translate(12.424006 39.226102) scale(0.697382)"/>
      <use xlink:href="#CMMI12-54" transform="translate(0 -34.355253) scale(0.697382)"/>
      <path d="M 0 22.914133 
L 49.506322 22.914133 
L 49.506322 26.899083 
L 0 26.899083 
L 0 22.914133 
z
"/>
     </g>
    </g>
   </g>
   <g id="matplotlib.axis_6">
    <g id="ytick_10">
     <g id="line2d_55">
      <g>
       <use xlink:href="#m95bbd8a79f" x="94.686598" y="294.424225" style="fill: #262626; stroke: #262626; stroke-width: 1.25"/>
      </g>
     </g>
     <g id="text_29">
      <!-- $\mathdefault{−0.010}$ -->
      <g style="fill: #262626" transform="translate(49.224487 298.575315) scale(0.12 -0.12)">
       <use xlink:href="#CMSY10-0" transform="scale(0.996264)"/>
       <use xlink:href="#CMR17-30" transform="translate(77.487468 0) scale(0.996264)"/>
       <use xlink:href="#CMMI12-3a" transform="translate(123.177945 0) scale(0.996264)"/>
       <use xlink:href="#CMR17-30" transform="translate(150.275122 0) scale(0.996264)"/>
       <use xlink:href="#CMR17-31" transform="translate(195.965599 0) scale(0.996264)"/>
       <use xlink:href="#CMR17-30" transform="translate(241.656076 0) scale(0.996264)"/>
      </g>
     </g>
    </g>
    <g id="ytick_11">
     <g id="line2d_56">
      <g>
       <use xlink:href="#m95bbd8a79f" x="94.686598" y="258.260582" style="fill: #262626; stroke: #262626; stroke-width: 1.25"/>
      </g>
     </g>
     <g id="text_30">
      <!-- $\mathdefault{−0.005}$ -->
      <g style="fill: #262626" transform="translate(49.224487 262.411672) scale(0.12 -0.12)">
       <use xlink:href="#CMSY10-0" transform="scale(0.996264)"/>
       <use xlink:href="#CMR17-30" transform="translate(77.487468 0) scale(0.996264)"/>
       <use xlink:href="#CMMI12-3a" transform="translate(123.177945 0) scale(0.996264)"/>
       <use xlink:href="#CMR17-30" transform="translate(150.275122 0) scale(0.996264)"/>
       <use xlink:href="#CMR17-30" transform="translate(195.965599 0) scale(0.996264)"/>
       <use xlink:href="#CMR17-35" transform="translate(241.656076 0) scale(0.996264)"/>
      </g>
     </g>
    </g>
    <g id="ytick_12">
     <g id="line2d_57">
      <g>
       <use xlink:href="#m95bbd8a79f" x="94.686598" y="222.09694" style="fill: #262626; stroke: #262626; stroke-width: 1.25"/>
      </g>
     </g>
     <g id="text_31">
      <!-- $\mathdefault{0.000}$ -->
      <g style="fill: #262626" transform="translate(58.522976 226.24803) scale(0.12 -0.12)">
       <use xlink:href="#CMR17-30" transform="scale(0.996264)"/>
       <use xlink:href="#CMMI12-3a" transform="translate(45.690477 0) scale(0.996264)"/>
       <use xlink:href="#CMR17-30" transform="translate(72.787654 0) scale(0.996264)"/>
       <use xlink:href="#CMR17-30" transform="translate(118.478131 0) scale(0.996264)"/>
       <use xlink:href="#CMR17-30" transform="translate(164.168608 0) scale(0.996264)"/>
      </g>
     </g>
    </g>
    <g id="text_32">
     <!-- $\alpha_x(t)$ -->
     <g style="fill: #262626" transform="translate(3.00024 266.909554) scale(0.15 -0.15)">
      <defs>
       <path id="CMMI12-78" d="M 3034 2606 
C 2829 2567 2752 2414 2752 2293 
C 2752 2139 2874 2088 2963 2088 
C 3155 2088 3290 2254 3290 2427 
C 3290 2695 2982 2816 2714 2816 
C 2323 2816 2106 2433 2048 2312 
C 1901 2816 1504 2816 1389 2816 
C 736 2816 390 1980 390 1839 
C 390 1814 416 1782 461 1782 
C 512 1782 525 1820 538 1846 
C 755 2555 1184 2689 1370 2689 
C 1658 2689 1715 2420 1715 2267 
C 1715 2127 1677 1980 1600 1673 
L 1382 798 
C 1286 415 1101 64 762 64 
C 730 64 570 64 435 147 
C 666 192 717 383 717 460 
C 717 588 621 664 499 664 
C 346 664 179 530 179 326 
C 179 57 480 -64 755 -64 
C 1062 -64 1280 179 1414 441 
C 1517 64 1837 -64 2074 -64 
C 2726 -64 3072 773 3072 913 
C 3072 945 3046 971 3008 971 
C 2950 971 2944 939 2925 888 
C 2752 326 2381 64 2093 64 
C 1869 64 1747 230 1747 492 
C 1747 632 1773 734 1875 1156 
L 2099 2024 
C 2195 2408 2413 2689 2707 2689 
C 2720 2689 2899 2689 3034 2606 
z
" transform="scale(0.015625)"/>
      </defs>
      <use xlink:href="#CMMI12-b" transform="scale(0.996264)"/>
      <use xlink:href="#CMMI12-78" transform="translate(62.046728 -14.943915) scale(0.697382)"/>
      <use xlink:href="#CMR17-28" transform="translate(101.34852 0) scale(0.996264)"/>
      <use xlink:href="#CMMI12-74" transform="translate(136.629288 0) scale(0.996264)"/>
      <use xlink:href="#CMR17-29" transform="translate(171.855618 0) scale(0.996264)"/>
     </g>
    </g>
   </g>
   <g id="line2d_58">
    <path d="M 107.495399 222.096361 
L 107.751575 225.689006 
L 108.007751 223.509449 
L 108.263928 224.429884 
L 108.77628 224.57889 
L 111.850392 226.612021 
L 114.924504 228.977379 
L 118.510968 232.042219 
L 123.890665 236.973504 
L 137.467994 249.551333 
L 143.103866 254.406442 
L 148.227387 258.540271 
L 153.350907 262.38717 
L 158.218252 265.774231 
L 163.341772 269.065961 
L 168.465293 272.08929 
L 173.588813 274.861714 
L 178.96851 277.522117 
L 184.604382 280.057002 
L 190.496431 282.456863 
L 196.644655 284.715725 
L 203.049056 286.830974 
L 209.965808 288.874172 
L 217.138737 290.760243 
L 224.824017 292.551328 
L 233.02165 294.234475 
L 241.987811 295.84406 
L 251.7225 297.357956 
L 262.225717 298.760502 
L 273.753638 300.068574 
L 286.306263 301.264256 
L 300.139768 302.355205 
L 315.510329 303.341436 
L 332.930299 304.230357 
L 352.655852 305.008579 
L 363.671421 305.35925 
L 363.671421 305.35925 
" clip-path="url(#p46fc5d3df8)" style="fill: none; stroke: #023eff; stroke-width: 1.5; stroke-linecap: round"/>
   </g>
   <g id="line2d_59">
    <path d="M 107.495399 222.095386 
L 107.751575 223.995656 
L 108.007751 222.487039 
L 108.263928 223.138435 
L 108.77628 223.237093 
L 111.33804 224.486079 
L 113.8998 226.020428 
L 116.717736 227.966971 
L 120.304201 230.727218 
L 125.427721 234.973794 
L 140.798282 247.903424 
L 146.434155 252.275 
L 151.813851 256.16613 
L 156.937372 259.604522 
L 162.060892 262.781172 
L 167.184413 265.705266 
L 172.564109 268.518202 
L 177.943805 271.085163 
L 183.579678 273.531957 
L 189.471726 275.848293 
L 195.619951 278.027974 
L 202.024352 280.06807 
L 208.941104 282.037275 
L 216.370209 283.914466 
L 224.311665 285.683981 
L 232.765474 287.335153 
L 241.987811 288.902239 
L 251.978676 290.365738 
L 262.738069 291.71254 
L 274.522166 292.960014 
L 287.587143 294.113493 
L 301.933 295.153368 
L 318.072089 296.095618 
L 336.260587 296.930064 
L 357.267021 297.663682 
L 363.671421 297.847942 
L 363.671421 297.847942 
" clip-path="url(#p46fc5d3df8)" style="fill: none; stroke: #ff7c00; stroke-width: 1.5; stroke-linecap: round"/>
   </g>
   <g id="line2d_60">
    <path d="M 107.495399 222.095881 
L 108.007751 221.998768 
L 109.800984 221.98623 
L 128.245657 221.931973 
L 142.335338 222.12384 
L 154.375611 222.508889 
L 165.647356 223.090668 
L 176.150573 223.851331 
L 186.397614 224.814495 
L 196.388479 225.976774 
L 206.123168 227.330738 
L 215.857857 228.910478 
L 225.33637 230.670695 
L 234.814882 232.653618 
L 244.293395 234.861637 
L 253.771908 237.296101 
L 263.250421 239.957415 
L 272.728934 242.845139 
L 282.463622 246.045301 
L 292.198311 249.480902 
L 301.933 253.149134 
L 311.923865 257.15215 
L 321.91473 261.392134 
L 332.161771 265.981725 
L 342.664988 270.932947 
L 353.42438 276.256705 
L 363.671421 281.556349 
L 363.671421 281.556349 
" clip-path="url(#p46fc5d3df8)" style="fill: none; stroke: #1ac938; stroke-width: 1.5; stroke-linecap: round"/>
   </g>
   <g id="line2d_61">
    <path d="M 107.495399 222.095874 
L 108.007751 221.999869 
L 109.800984 222.038875 
L 113.8998 222.268206 
L 116.973912 222.652178 
L 119.791848 223.233777 
L 122.353609 223.982083 
L 124.915369 224.968027 
L 127.220953 226.076043 
L 129.782713 227.55402 
L 132.344474 229.283279 
L 135.16241 231.46 
L 138.492698 234.345949 
L 142.591514 238.223501 
L 151.813851 247.071676 
L 154.887963 249.648607 
L 157.449724 251.512748 
L 159.755308 252.919228 
L 161.804716 253.922735 
L 163.854124 254.67099 
L 165.647356 255.102632 
L 167.440589 255.317342 
L 169.233821 255.309838 
L 171.027053 255.077789 
L 172.820285 254.62207 
L 174.613517 253.946927 
L 176.662925 252.916522 
L 178.712334 251.625739 
L 181.017918 249.888933 
L 183.579678 247.64998 
L 186.397614 244.882529 
L 190.240255 240.760215 
L 199.206415 230.983748 
L 202.280528 228.045323 
L 204.842288 225.908918 
L 207.147872 224.280539 
L 209.19728 223.096045 
L 211.246688 222.177952 
L 213.03992 221.602779 
L 214.833153 221.245062 
L 216.626385 221.105265 
L 218.419617 221.180149 
L 220.212849 221.462836 
L 222.262257 222.026889 
L 224.311665 222.827962 
L 226.61725 223.980182 
L 229.17901 225.520902 
L 232.253122 227.638811 
L 237.632819 231.679821 
L 242.243987 235.024696 
L 245.318099 236.972081 
L 247.879859 238.330346 
L 250.185444 239.301941 
L 252.234852 239.941497 
L 254.28426 240.354547 
L 256.333668 240.531689 
L 258.383076 240.469112 
L 260.432485 240.168643 
L 262.481893 239.637694 
L 264.531301 238.889094 
L 266.836885 237.809318 
L 269.398645 236.353371 
L 272.472758 234.325625 
L 276.82775 231.136457 
L 283.23215 226.453148 
L 286.306263 224.500108 
L 288.868023 223.135222 
L 291.173607 222.161738 
L 293.223015 221.528203 
L 295.272423 221.132502 
L 297.321832 220.987878 
L 299.115064 221.073243 
L 300.908296 221.357722 
L 302.957704 221.923349 
L 305.007112 222.736364 
L 307.05652 223.781544 
L 309.362105 225.208904 
L 311.923865 227.063245 
L 314.997977 229.577587 
L 319.609146 233.685989 
L 325.245018 238.671766 
L 328.31913 241.105208 
L 330.880891 242.866363 
L 333.186475 244.191473 
L 335.235883 245.132183 
L 337.285291 245.828612 
L 339.078523 246.225764 
L 340.871755 246.417925 
L 342.664988 246.401934 
L 344.45822 246.17801 
L 346.251452 245.749753 
L 348.30086 245.019144 
L 350.350268 244.046254 
L 352.655852 242.688016 
L 355.217613 240.894712 
L 358.035549 238.646056 
L 361.878189 235.275288 
L 363.671421 233.645588 
L 363.671421 233.645588 
" clip-path="url(#p46fc5d3df8)" style="fill: none; stroke: #e8000b; stroke-width: 1.5; stroke-linecap: round"/>
   </g>
   <g id="patch_14">
    <path d="M 94.686598 309.577819 
L 94.686598 216.769309 
" style="fill: none; stroke: #262626; stroke-width: 1.25; stroke-linejoin: miter; stroke-linecap: square"/>
   </g>
   <g id="patch_15">
    <path d="M 376.480222 309.577819 
L 376.480222 216.769309 
" style="fill: none; stroke: #262626; stroke-width: 1.25; stroke-linejoin: miter; stroke-linecap: square"/>
   </g>
   <g id="patch_16">
    <path d="M 94.686598 309.577819 
L 376.480222 309.577819 
" style="fill: none; stroke: #262626; stroke-width: 1.25; stroke-linejoin: miter; stroke-linecap: square"/>
   </g>
   <g id="patch_17">
    <path d="M 94.686598 216.769309 
L 376.480222 216.769309 
" style="fill: none; stroke: #262626; stroke-width: 1.25; stroke-linejoin: miter; stroke-linecap: square"/>
   </g>
  </g>
 </g>
 <defs>
  <clipPath id="pa4a5020c58">
   <rect x="94.686598" y="3.00024" width="281.793624" height="92.80851"/>
  </clipPath>
  <clipPath id="p52754b89c3">
   <rect x="94.686598" y="111.96032" width="281.793624" height="92.80851"/>
  </clipPath>
  <clipPath id="p46fc5d3df8">
   <rect x="94.686598" y="216.769309" width="281.793624" height="92.80851"/>
  </clipPath>
 </defs>
</svg>
