<?xml version="1.0" encoding="utf-8" standalone="no"?>
<!DOCTYPE svg PUBLIC "-//W3C//DTD SVG 1.1//EN"
  "http://www.w3.org/Graphics/SVG/1.1/DTD/svg11.dtd">
<svg xmlns:xlink="http://www.w3.org/1999/xlink" width="504pt" height="252pt" viewBox="0 0 504 252" xmlns="http://www.w3.org/2000/svg" version="1.1">
 <metadata>
  <rdf:RDF xmlns:dc="http://purl.org/dc/elements/1.1/" xmlns:cc="http://creativecommons.org/ns#" xmlns:rdf="http://www.w3.org/1999/02/22-rdf-syntax-ns#">
   <cc:Work>
    <dc:type rdf:resource="http://purl.org/dc/dcmitype/StillImage"/>
    <dc:date>2024-06-29T13:55:15.763509</dc:date>
    <dc:format>image/svg+xml</dc:format>
    <dc:creator>
     <cc:Agent>
      <dc:title>Matplotlib v3.7.1, https://matplotlib.org/</dc:title>
     </cc:Agent>
    </dc:creator>
   </cc:Work>
  </rdf:RDF>
 </metadata>
 <defs>
  <style type="text/css">*{stroke-linejoin: round; stroke-linecap: butt}</style>
 </defs>
 <g id="figure_1">
  <g id="patch_1">
   <path d="M 0 252 
L 504 252 
L 504 0 
L 0 0 
z
" style="fill: #ffffff"/>
  </g>
  <g id="axes_1">
   <g id="patch_2">
    <path d="M 94.163399 96.288789 
L 376.469758 96.288789 
L 376.469758 3.00024 
L 94.163399 3.00024 
z
" style="fill: #ffffff"/>
   </g>
   <g id="matplotlib.axis_1">
    <g id="xtick_1">
     <g id="line2d_1">
      <defs>
       <path id="m9a2460a10e" d="M 0 0 
L 0 6 
" style="stroke: #262626; stroke-width: 1.25"/>
      </defs>
      <g>
       <use xlink:href="#m9a2460a10e" x="106.995506" y="96.288789" style="fill: #262626; stroke: #262626; stroke-width: 1.25"/>
      </g>
     </g>
    </g>
    <g id="xtick_2">
     <g id="line2d_2">
      <g>
       <use xlink:href="#m9a2460a10e" x="158.323935" y="96.288789" style="fill: #262626; stroke: #262626; stroke-width: 1.25"/>
      </g>
     </g>
    </g>
    <g id="xtick_3">
     <g id="line2d_3">
      <g>
       <use xlink:href="#m9a2460a10e" x="209.652364" y="96.288789" style="fill: #262626; stroke: #262626; stroke-width: 1.25"/>
      </g>
     </g>
    </g>
    <g id="xtick_4">
     <g id="line2d_4">
      <g>
       <use xlink:href="#m9a2460a10e" x="260.980793" y="96.288789" style="fill: #262626; stroke: #262626; stroke-width: 1.25"/>
      </g>
     </g>
    </g>
    <g id="xtick_5">
     <g id="line2d_5">
      <g>
       <use xlink:href="#m9a2460a10e" x="312.309222" y="96.288789" style="fill: #262626; stroke: #262626; stroke-width: 1.25"/>
      </g>
     </g>
    </g>
    <g id="xtick_6">
     <g id="line2d_6">
      <g>
       <use xlink:href="#m9a2460a10e" x="363.637651" y="96.288789" style="fill: #262626; stroke: #262626; stroke-width: 1.25"/>
      </g>
     </g>
    </g>
   </g>
   <g id="matplotlib.axis_2">
    <g id="ytick_1">
     <g id="line2d_7">
      <defs>
       <path id="m283ade861e" d="M 0 0 
L -6 0 
" style="stroke: #262626; stroke-width: 1.25"/>
      </defs>
      <g>
       <use xlink:href="#m283ade861e" x="94.163399" y="82.931705" style="fill: #262626; stroke: #262626; stroke-width: 1.25"/>
      </g>
     </g>
     <g id="text_1">
      <!-- $\mathdefault{−25}$ -->
      <g style="fill: #262626" transform="translate(63.658929 87.082795) scale(0.12 -0.12)">
       <defs>
        <path id="CMSY10-0" d="M 4218 1472 
C 4326 1472 4442 1472 4442 1600 
C 4442 1728 4326 1728 4218 1728 
L 755 1728 
C 646 1728 531 1728 531 1600 
C 531 1472 646 1472 755 1472 
L 4218 1472 
z
" transform="scale(0.015625)"/>
        <path id="CMR17-32" d="M 2669 989 
L 2554 989 
C 2490 536 2438 459 2413 420 
C 2381 369 1920 369 1830 369 
L 602 369 
C 832 619 1280 1072 1824 1597 
C 2214 1967 2669 2402 2669 3035 
C 2669 3790 2067 4224 1395 4224 
C 691 4224 262 3604 262 3030 
C 262 2780 448 2748 525 2748 
C 589 2748 781 2787 781 3010 
C 781 3207 614 3264 525 3264 
C 486 3264 448 3258 422 3245 
C 544 3790 915 4058 1306 4058 
C 1862 4058 2227 3617 2227 3035 
C 2227 2479 1901 2000 1536 1584 
L 262 146 
L 262 0 
L 2515 0 
L 2669 989 
z
" transform="scale(0.015625)"/>
        <path id="CMR17-35" d="M 730 3692 
C 794 3666 1056 3584 1325 3584 
C 1920 3584 2246 3911 2432 4100 
C 2432 4157 2432 4192 2394 4192 
C 2387 4192 2374 4192 2323 4163 
C 2099 4058 1837 3973 1517 3973 
C 1325 3973 1037 3999 723 4139 
C 653 4171 640 4171 634 4171 
C 602 4171 595 4164 595 4037 
L 595 2203 
C 595 2089 595 2057 659 2057 
C 691 2057 704 2070 736 2114 
C 941 2401 1222 2522 1542 2522 
C 1766 2522 2246 2382 2246 1289 
C 2246 1085 2246 715 2054 421 
C 1894 159 1645 25 1370 25 
C 947 25 518 320 403 814 
C 429 807 480 795 506 795 
C 589 795 749 840 749 1038 
C 749 1210 627 1280 506 1280 
C 358 1280 262 1190 262 1011 
C 262 454 704 -128 1382 -128 
C 2042 -128 2669 440 2669 1264 
C 2669 2030 2170 2624 1549 2624 
C 1222 2624 947 2503 730 2274 
L 730 3692 
z
" transform="scale(0.015625)"/>
       </defs>
       <use xlink:href="#CMSY10-0" transform="scale(0.996264)"/>
       <use xlink:href="#CMR17-32" transform="translate(77.487468 0) scale(0.996264)"/>
       <use xlink:href="#CMR17-35" transform="translate(123.177945 0) scale(0.996264)"/>
      </g>
     </g>
    </g>
    <g id="ytick_2">
     <g id="line2d_8">
      <g>
       <use xlink:href="#m283ade861e" x="94.163399" y="49.644515" style="fill: #262626; stroke: #262626; stroke-width: 1.25"/>
      </g>
     </g>
     <g id="text_2">
      <!-- $\mathdefault{0}$ -->
      <g style="fill: #262626" transform="translate(78.810408 53.795605) scale(0.12 -0.12)">
       <defs>
        <path id="CMR17-30" d="M 2688 2025 
C 2688 2416 2682 3080 2413 3591 
C 2176 4039 1798 4198 1466 4198 
C 1158 4198 768 4058 525 3597 
C 269 3118 243 2524 243 2025 
C 243 1661 250 1106 448 619 
C 723 -39 1216 -128 1466 -128 
C 1760 -128 2208 -7 2470 600 
C 2662 1042 2688 1559 2688 2025 
z
M 1466 -26 
C 1056 -26 813 325 723 812 
C 653 1188 653 1738 653 2096 
C 653 2588 653 2997 736 3387 
C 858 3929 1216 4096 1466 4096 
C 1728 4096 2067 3923 2189 3400 
C 2272 3036 2278 2607 2278 2096 
C 2278 1680 2278 1169 2202 792 
C 2067 95 1690 -26 1466 -26 
z
" transform="scale(0.015625)"/>
       </defs>
       <use xlink:href="#CMR17-30" transform="scale(0.996264)"/>
      </g>
     </g>
    </g>
    <g id="ytick_3">
     <g id="line2d_9">
      <g>
       <use xlink:href="#m283ade861e" x="94.163399" y="16.357324" style="fill: #262626; stroke: #262626; stroke-width: 1.25"/>
      </g>
     </g>
     <g id="text_3">
      <!-- $\mathdefault{25}$ -->
      <g style="fill: #262626" transform="translate(72.957418 20.508414) scale(0.12 -0.12)">
       <use xlink:href="#CMR17-32" transform="scale(0.996264)"/>
       <use xlink:href="#CMR17-35" transform="translate(45.690477 0) scale(0.996264)"/>
      </g>
     </g>
    </g>
    <g id="text_4">
     <!-- $B(t)$ -->
     <g style="fill: #262626" transform="translate(7.391395 53.380505) scale(0.15 -0.15)">
      <defs>
       <path id="CMMI12-42" d="M 2342 3921 
C 2400 4160 2426 4160 2675 4160 
L 3507 4160 
C 4230 4160 4230 3544 4230 3485 
C 4230 2966 3712 2304 2867 2304 
L 1946 2304 
L 2342 3921 
z
M 3424 2275 
C 4122 2402 4755 2886 4755 3473 
C 4755 3970 4314 4352 3590 4352 
L 1536 4352 
C 1414 4352 1357 4352 1357 4226 
C 1357 4160 1414 4160 1510 4160 
C 1901 4160 1901 4112 1901 4044 
C 1901 4032 1901 3993 1875 3897 
L 1011 472 
C 954 249 941 185 493 185 
C 371 185 307 185 307 70 
C 307 0 346 0 474 0 
L 2669 0 
C 3648 0 4403 739 4403 1383 
C 4403 1906 3942 2224 3424 2275 
z
M 2515 185 
L 1651 185 
C 1562 185 1549 185 1510 192 
C 1440 198 1434 211 1434 261 
C 1434 305 1446 343 1459 399 
L 1907 2176 
L 3110 2176 
C 3866 2176 3866 1483 3866 1433 
C 3866 828 3309 185 2515 185 
z
" transform="scale(0.015625)"/>
       <path id="CMR17-28" d="M 1958 -1561 
C 1958 -1555 1958 -1542 1939 -1523 
C 1645 -1224 858 -407 858 1581 
C 858 3569 1632 4379 1946 4697 
C 1946 4704 1958 4717 1958 4736 
C 1958 4755 1939 4768 1914 4768 
C 1843 4768 1299 4296 986 3594 
C 666 2887 576 2199 576 1588 
C 576 1128 621 351 1005 -471 
C 1312 -1135 1837 -1600 1914 -1600 
C 1946 -1600 1958 -1587 1958 -1561 
z
" transform="scale(0.015625)"/>
       <path id="CMMI12-74" d="M 1286 2566 
L 1875 2566 
C 1997 2566 2061 2566 2061 2681 
C 2061 2752 2022 2752 1894 2752 
L 1331 2752 
L 1568 3692 
C 1594 3781 1594 3794 1594 3840 
C 1594 3943 1510 4000 1427 4000 
C 1376 4000 1229 3981 1178 3775 
L 928 2752 
L 326 2752 
C 198 2752 141 2752 141 2630 
C 141 2566 186 2566 307 2566 
L 877 2566 
L 454 881 
C 403 658 384 594 384 511 
C 384 211 595 -64 954 -64 
C 1600 -64 1946 868 1946 912 
C 1946 951 1920 970 1882 970 
C 1869 970 1843 970 1830 944 
C 1824 938 1818 931 1773 829 
C 1638 511 1344 64 973 64 
C 781 64 768 224 768 364 
C 768 370 768 492 787 568 
L 1286 2566 
z
" transform="scale(0.015625)"/>
       <path id="CMR17-29" d="M 1683 1581 
C 1683 2040 1638 2817 1254 3639 
C 947 4303 422 4768 346 4768 
C 326 4768 301 4761 301 4729 
C 301 4717 307 4710 314 4697 
C 621 4378 1402 3568 1402 1584 
C 1402 -407 627 -1217 314 -1537 
C 307 -1549 301 -1556 301 -1568 
C 301 -1600 326 -1600 346 -1600 
C 416 -1600 960 -1128 1274 -426 
C 1594 281 1683 969 1683 1581 
z
" transform="scale(0.015625)"/>
      </defs>
      <use xlink:href="#CMMI12-42" transform="scale(0.996264)"/>
      <use xlink:href="#CMR17-28" transform="translate(79.135523 0) scale(0.996264)"/>
      <use xlink:href="#CMMI12-74" transform="translate(114.416291 0) scale(0.996264)"/>
      <use xlink:href="#CMR17-29" transform="translate(149.642621 0) scale(0.996264)"/>
     </g>
    </g>
   </g>
   <g id="line2d_10">
    <path d="M 106.995506 7.240629 
L 363.637651 7.240629 
L 363.637651 7.240629 
" clip-path="url(#p363de5f8ac)" style="fill: none; stroke: #023eff; stroke-width: 1.5; stroke-linecap: round"/>
   </g>
   <g id="line2d_11">
    <path d="M 106.995506 92.048401 
L 363.637651 92.048401 
L 363.637651 92.048401 
" clip-path="url(#p363de5f8ac)" style="fill: none; stroke: #ff7c00; stroke-width: 1.5; stroke-linecap: round"/>
   </g>
   <g id="line2d_12">
    <path d="M 106.995506 49.644515 
L 363.637651 7.240629 
L 363.637651 7.240629 
" clip-path="url(#p363de5f8ac)" style="fill: none; stroke: #1ac938; stroke-width: 1.5; stroke-linecap: round"/>
   </g>
   <g id="line2d_13">
    <path d="M 106.995506 49.644515 
L 115.208055 37.048797 
L 119.570971 30.750491 
L 123.163961 25.920293 
L 126.500309 21.802727 
L 129.580015 18.371092 
L 132.403078 15.575477 
L 134.9695 13.350763 
L 137.279279 11.62345 
L 139.589058 10.169533 
L 141.642195 9.115177 
L 143.695333 8.291116 
L 145.74847 7.702033 
L 147.801607 7.351276 
L 149.854744 7.240838 
L 151.907881 7.371346 
L 153.961018 7.742058 
L 156.014156 8.350868 
L 158.067293 9.194318 
L 160.12043 10.267613 
L 162.430209 11.742165 
L 164.739989 13.489258 
L 167.30641 15.734778 
L 169.872831 18.281282 
L 172.695895 21.403023 
L 175.775601 25.153188 
L 179.111949 29.567402 
L 182.961581 35.030315 
L 187.837782 42.354053 
L 203.749595 66.607305 
L 207.599227 71.91396 
L 210.935575 76.157233 
L 214.01528 79.72264 
L 216.838344 82.654341 
L 219.404766 85.012682 
L 221.971187 87.057091 
L 224.280966 88.613591 
L 226.590746 89.889879 
L 228.643883 90.781652 
L 230.69702 91.439676 
L 232.750157 91.860211 
L 234.803294 92.040868 
L 236.856431 91.98062 
L 238.909569 91.679811 
L 240.962706 91.140148 
L 243.015843 90.364699 
L 245.06898 89.357869 
L 247.378759 87.955788 
L 249.688539 86.278225 
L 251.998318 84.337242 
L 254.564739 81.888683 
L 257.387803 78.865618 
L 260.467509 75.21107 
L 263.803857 70.884902 
L 267.653489 65.501838 
L 272.273047 58.63444 
L 280.228954 46.317544 
L 286.90165 36.161494 
L 291.264566 29.920301 
L 294.857556 25.153188 
L 297.937262 21.403023 
L 300.760326 18.281282 
L 303.583389 15.496331 
L 306.149811 13.282052 
L 308.45959 11.564656 
L 310.769369 10.121077 
L 312.822506 9.076206 
L 314.875644 8.261851 
L 316.928781 7.682642 
L 318.981918 7.341868 
L 321.035055 7.241466 
L 323.088192 7.382006 
L 325.141329 7.762691 
L 327.194467 8.381356 
L 329.247604 9.234487 
L 331.300741 10.317236 
L 333.61052 11.802083 
L 335.920299 13.559042 
L 338.486721 15.81493 
L 341.053142 18.371092 
L 343.876206 21.502534 
L 346.955912 25.262057 
L 350.29226 29.684839 
L 354.141892 35.155441 
L 359.018093 42.485321 
L 363.637651 49.644515 
L 363.637651 49.644515 
" clip-path="url(#p363de5f8ac)" style="fill: none; stroke: #e8000b; stroke-width: 1.5; stroke-linecap: round"/>
   </g>
   <g id="patch_3">
    <path d="M 94.163399 96.288789 
L 94.163399 3.00024 
" style="fill: none; stroke: #262626; stroke-width: 1.25; stroke-linejoin: miter; stroke-linecap: square"/>
   </g>
   <g id="patch_4">
    <path d="M 376.469758 96.288789 
L 376.469758 3.00024 
" style="fill: none; stroke: #262626; stroke-width: 1.25; stroke-linejoin: miter; stroke-linecap: square"/>
   </g>
   <g id="patch_5">
    <path d="M 94.163399 96.288789 
L 376.469758 96.288789 
" style="fill: none; stroke: #262626; stroke-width: 1.25; stroke-linejoin: miter; stroke-linecap: square"/>
   </g>
   <g id="patch_6">
    <path d="M 94.163399 3.00024 
L 376.469758 3.00024 
" style="fill: none; stroke: #262626; stroke-width: 1.25; stroke-linejoin: miter; stroke-linecap: square"/>
   </g>
   <g id="legend_1">
    <g id="patch_7">
     <path d="M 385.715886 92.555971 
L 498.643961 92.555971 
Q 501.043961 92.555971 501.043961 90.155971 
L 501.043961 6.60024 
Q 501.043961 4.20024 498.643961 4.20024 
L 385.715886 4.20024 
Q 383.315886 4.20024 383.315886 6.60024 
L 383.315886 90.155971 
Q 383.315886 92.555971 385.715886 92.555971 
z
" style="fill: #ffffff; opacity: 0.8; stroke: #cccccc; stroke-linejoin: miter"/>
    </g>
    <g id="text_5">
     <!-- Field -->
     <g style="fill: #262626" transform="translate(429.255604 17.30242) scale(0.12 -0.12)">
      <defs>
       <path id="CMR17-46" d="M 3482 4325 
L 326 4325 
L 326 4160 
C 768 4160 838 4160 838 3874 
L 838 446 
C 838 160 768 160 326 160 
L 326 0 
C 512 0 870 0 1069 0 
C 1331 0 1638 0 1901 0 
L 1901 160 
L 1760 160 
C 1274 160 1261 223 1261 452 
L 1261 2075 
L 1837 2075 
C 2432 2075 2490 1865 2490 1332 
L 2605 1332 
L 2605 2987 
L 2490 2987 
C 2490 2450 2432 2240 1837 2240 
L 1261 2240 
L 1261 3911 
C 1261 4128 1274 4160 1530 4160 
L 2355 4160 
C 3322 4160 3430 3765 3520 2916 
L 3635 2916 
L 3482 4325 
z
" transform="scale(0.015625)"/>
       <path id="CMR17-69" d="M 992 3909 
C 992 4049 877 4170 730 4170 
C 589 4170 467 4056 467 3909 
C 467 3769 582 3648 730 3648 
C 870 3648 992 3763 992 3909 
z
M 243 2706 
L 243 2541 
C 602 2541 653 2502 653 2197 
L 653 427 
C 653 184 627 153 218 153 
L 218 -13 
C 371 0 646 0 806 0 
C 960 0 1222 0 1370 -13 
L 1370 153 
C 992 153 979 191 979 420 
L 979 2776 
L 243 2706 
z
" transform="scale(0.015625)"/>
       <path id="CMR17-65" d="M 2438 1472 
C 2464 1498 2464 1511 2464 1576 
C 2464 2238 2118 2816 1389 2816 
C 710 2816 173 2169 173 1383 
C 173 551 781 -64 1459 -64 
C 2176 -64 2458 607 2458 740 
C 2458 784 2419 784 2406 784 
C 2362 784 2355 771 2330 696 
C 2189 265 1837 51 1504 51 
C 1229 51 954 203 781 480 
C 582 803 582 1176 582 1472 
L 2438 1472 
z
M 589 1568 
C 634 2505 1126 2714 1382 2714 
C 1818 2714 2112 2297 2118 1568 
L 589 1568 
z
" transform="scale(0.015625)"/>
       <path id="CMR17-6c" d="M 979 4396 
L 218 4326 
L 218 4160 
C 595 4160 653 4122 653 3817 
L 653 426 
C 653 184 627 153 218 153 
L 218 -13 
C 371 0 653 0 813 0 
C 979 0 1261 0 1414 -13 
L 1414 153 
C 1005 153 979 178 979 426 
L 979 4396 
z
" transform="scale(0.015625)"/>
       <path id="CMR17-64" d="M 1869 4326 
L 1869 4160 
C 2246 4160 2304 4122 2304 3820 
L 2304 2345 
C 2278 2377 2016 2790 1498 2790 
C 845 2790 211 2208 211 1364 
C 211 525 806 -64 1434 -64 
C 1978 -64 2259 337 2291 380 
L 2291 -63 
L 3066 -63 
L 3066 128 
C 2688 128 2630 166 2630 473 
L 2630 4396 
L 1869 4326 
z
M 2291 755 
C 2291 563 2176 390 2029 262 
C 1811 70 1594 38 1472 38 
C 1286 38 621 134 621 1356 
C 621 2612 1363 2688 1530 2688 
C 1824 2688 2061 2522 2208 2291 
C 2291 2157 2291 2138 2291 2023 
L 2291 755 
z
" transform="scale(0.015625)"/>
      </defs>
      <use xlink:href="#CMR17-46" transform="scale(0.996264)"/>
      <use xlink:href="#CMR17-69" transform="translate(59.983847 0) scale(0.996264)"/>
      <use xlink:href="#CMR17-65" transform="translate(84.854905 0) scale(0.996264)"/>
      <use xlink:href="#CMR17-6c" transform="translate(125.340566 0) scale(0.996264)"/>
      <use xlink:href="#CMR17-64" transform="translate(150.211624 0) scale(0.996264)"/>
     </g>
    </g>
    <g id="line2d_14">
     <path d="M 388.115886 29.827016 
L 400.115886 29.827016 
L 412.115886 29.827016 
" style="fill: none; stroke: #023eff; stroke-width: 1.5; stroke-linecap: round"/>
    </g>
    <g id="text_6">
     <!-- Constant -->
     <g style="fill: #262626" transform="translate(421.715886 34.027016) scale(0.12 -0.12)">
      <defs>
       <path id="CMR17-43" d="M 3974 4289 
C 3974 4403 3968 4410 3930 4410 
C 3904 4410 3898 4403 3853 4327 
L 3571 3792 
C 3258 4187 2874 4416 2381 4416 
C 1286 4416 294 3456 294 2148 
C 294 826 1286 -128 2387 -128 
C 3366 -128 3974 730 3974 1461 
C 3974 1524 3974 1550 3917 1550 
C 3866 1550 3866 1531 3859 1474 
C 3808 585 3168 38 2477 38 
C 1824 38 781 495 781 2147 
C 781 3805 1843 4250 2464 4250 
C 3187 4250 3712 3628 3834 2745 
C 3846 2668 3846 2655 3904 2655 
C 3974 2655 3974 2668 3974 2783 
L 3974 4289 
z
" transform="scale(0.015625)"/>
       <path id="CMR17-6f" d="M 2758 1356 
C 2758 2176 2163 2816 1466 2816 
C 768 2816 173 2176 173 1356 
C 173 551 768 -64 1466 -64 
C 2163 -64 2758 551 2758 1356 
z
M 1466 51 
C 1165 51 909 230 762 480 
C 602 767 582 1126 582 1408 
C 582 1677 595 2010 762 2298 
C 890 2509 1139 2714 1466 2714 
C 1754 2714 1997 2554 2150 2330 
C 2349 2029 2349 1607 2349 1408 
C 2349 1158 2336 775 2163 467 
C 1984 173 1709 51 1466 51 
z
" transform="scale(0.015625)"/>
       <path id="CMR17-6e" d="M 2656 1933 
C 2656 2259 2592 2790 1837 2790 
C 1331 2790 1069 2400 973 2144 
L 966 2144 
L 966 2790 
L 211 2720 
L 211 2554 
C 589 2554 646 2515 646 2208 
L 646 428 
C 646 184 621 153 211 153 
L 211 -13 
C 365 0 646 0 813 0 
C 979 0 1267 0 1421 -13 
L 1421 153 
C 1011 153 986 178 986 428 
L 986 1658 
C 986 2247 1344 2688 1792 2688 
C 2266 2688 2317 2266 2317 1958 
L 2317 428 
C 2317 184 2291 153 1882 153 
L 1882 -13 
C 2035 0 2317 0 2483 0 
C 2650 0 2938 0 3091 -13 
L 3091 153 
C 2682 153 2656 178 2656 428 
L 2656 1933 
z
" transform="scale(0.015625)"/>
       <path id="CMR17-73" d="M 1978 2697 
C 1978 2813 1971 2819 1933 2819 
C 1907 2819 1901 2813 1824 2717 
C 1805 2691 1747 2626 1728 2601 
C 1523 2819 1235 2819 1126 2819 
C 416 2819 160 2447 160 2076 
C 160 1498 813 1365 998 1325 
C 1402 1243 1542 1217 1677 1101 
C 1760 1025 1901 884 1901 654 
C 1901 384 1747 38 1158 38 
C 602 38 403 460 288 1021 
C 269 1110 269 1117 218 1117 
C 166 1117 160 1110 160 983 
L 160 63 
C 160 -51 166 -58 205 -58 
C 237 -58 243 -51 275 0 
C 314 57 410 211 448 276 
C 576 103 800 -64 1158 -64 
C 1792 -64 2131 283 2131 784 
C 2131 1112 1958 1285 1875 1362 
C 1683 1561 1459 1606 1190 1657 
C 838 1735 390 1825 390 2217 
C 390 2383 480 2737 1126 2737 
C 1811 2737 1850 2094 1862 1888 
C 1869 1856 1901 1849 1920 1849 
C 1978 1849 1978 1869 1978 1978 
L 1978 2697 
z
" transform="scale(0.015625)"/>
       <path id="CMR17-74" d="M 966 2560 
L 1862 2560 
L 1862 2725 
L 966 2725 
L 966 3904 
L 851 3904 
C 838 3245 614 2668 70 2668 
L 70 2560 
L 627 2560 
L 627 771 
C 627 650 627 -64 1370 -64 
C 1747 -64 1965 306 1965 777 
L 1965 1140 
L 1850 1140 
L 1850 783 
C 1850 344 1677 51 1408 51 
C 1222 51 966 178 966 758 
L 966 2560 
z
" transform="scale(0.015625)"/>
       <path id="CMR17-61" d="M 2304 1653 
C 2304 2072 2304 2294 2035 2543 
C 1798 2752 1523 2816 1306 2816 
C 800 2816 435 2407 435 1971 
C 435 1728 627 1728 666 1728 
C 749 1728 896 1778 896 1954 
C 896 2112 774 2181 666 2181 
C 640 2181 608 2174 589 2168 
C 723 2592 1069 2714 1293 2714 
C 1613 2714 1965 2429 1965 1885 
L 1965 1600 
C 1587 1600 1133 1549 774 1357 
C 371 1133 256 813 256 570 
C 256 77 832 -64 1171 -64 
C 1523 -64 1850 139 1990 511 
C 2003 233 2182 -18 2464 -18 
C 2598 -18 2938 70 2938 567 
L 2938 920 
L 2822 920 
L 2822 562 
C 2822 178 2650 128 2566 128 
C 2304 128 2304 458 2304 738 
L 2304 1653 
z
M 1965 870 
C 1965 317 1568 38 1216 38 
C 896 38 646 275 646 570 
C 646 761 730 1100 1101 1305 
C 1408 1478 1760 1504 1965 1504 
L 1965 870 
z
" transform="scale(0.015625)"/>
      </defs>
      <use xlink:href="#CMR17-43" transform="scale(0.996264)"/>
      <use xlink:href="#CMR17-6f" transform="translate(66.509881 0) scale(0.996264)"/>
      <use xlink:href="#CMR17-6e" transform="translate(112.200358 0) scale(0.996264)"/>
      <use xlink:href="#CMR17-73" transform="translate(163.095727 0) scale(0.996264)"/>
      <use xlink:href="#CMR17-74" transform="translate(198.897065 0) scale(0.996264)"/>
      <use xlink:href="#CMR17-61" transform="translate(234.177833 0) scale(0.996264)"/>
      <use xlink:href="#CMR17-6e" transform="translate(279.86831 0) scale(0.996264)"/>
      <use xlink:href="#CMR17-74" transform="translate(328.161226 0) scale(0.996264)"/>
     </g>
    </g>
    <g id="line2d_15">
     <path d="M 388.115886 47.117987 
L 400.115886 47.117987 
L 412.115886 47.117987 
" style="fill: none; stroke: #ff7c00; stroke-width: 1.5; stroke-linecap: round"/>
    </g>
    <g id="text_7">
     <!-- (-ve) Constant -->
     <g style="fill: #262626" transform="translate(421.715886 51.317987) scale(0.12 -0.12)">
      <defs>
       <path id="CMR17-2d" d="M 1632 1216 
L 1632 1496 
L 26 1496 
L 26 1216 
L 1632 1216 
z
" transform="scale(0.015625)"/>
       <path id="CMR17-76" d="M 2502 2163 
C 2560 2304 2662 2560 3034 2560 
L 3034 2726 
C 2912 2726 2752 2726 2630 2726 
C 2496 2726 2285 2726 2157 2732 
L 2157 2566 
C 2317 2553 2406 2477 2406 2311 
C 2406 2253 2406 2240 2368 2151 
L 1664 377 
L 902 2286 
C 864 2369 864 2381 864 2407 
C 864 2560 1075 2560 1171 2560 
L 1171 2732 
C 1018 2726 736 2726 576 2726 
C 403 2726 205 2726 64 2732 
L 64 2560 
C 307 2560 442 2560 518 2362 
L 1446 44 
C 1485 -51 1491 -64 1549 -64 
C 1606 -64 1613 -51 1651 44 
L 2502 2163 
z
" transform="scale(0.015625)"/>
      </defs>
      <use xlink:href="#CMR17-28" transform="scale(0.996264)"/>
      <use xlink:href="#CMR17-2d" transform="translate(35.280768 0) scale(0.996264)"/>
      <use xlink:href="#CMR17-76" transform="translate(65.356734 0) scale(0.996264)"/>
      <use xlink:href="#CMR17-65" transform="translate(111.047196 0) scale(0.996264)"/>
      <use xlink:href="#CMR17-29" transform="translate(151.532857 0) scale(0.996264)"/>
      <use xlink:href="#CMR17-43" transform="translate(216.889591 0) scale(0.996264)"/>
      <use xlink:href="#CMR17-6f" transform="translate(283.399471 0) scale(0.996264)"/>
      <use xlink:href="#CMR17-6e" transform="translate(329.089948 0) scale(0.996264)"/>
      <use xlink:href="#CMR17-73" transform="translate(379.985318 0) scale(0.996264)"/>
      <use xlink:href="#CMR17-74" transform="translate(415.786656 0) scale(0.996264)"/>
      <use xlink:href="#CMR17-61" transform="translate(451.067424 0) scale(0.996264)"/>
      <use xlink:href="#CMR17-6e" transform="translate(496.757901 0) scale(0.996264)"/>
      <use xlink:href="#CMR17-74" transform="translate(545.050817 0) scale(0.996264)"/>
     </g>
    </g>
    <g id="line2d_16">
     <path d="M 388.115886 64.506779 
L 400.115886 64.506779 
L 412.115886 64.506779 
" style="fill: none; stroke: #1ac938; stroke-width: 1.5; stroke-linecap: round"/>
    </g>
    <g id="text_8">
     <!-- Increasing -->
     <g style="fill: #262626" transform="translate(421.715886 68.706779) scale(0.12 -0.12)">
      <defs>
       <path id="CMR17-49" d="M 1261 3905 
C 1261 4192 1338 4192 1798 4192 
L 1798 4352 
C 1594 4352 1267 4352 1050 4352 
C 832 4352 506 4352 301 4352 
L 301 4192 
C 762 4192 838 4192 838 3905 
L 838 447 
C 838 160 762 160 301 160 
L 301 0 
C 506 0 832 0 1050 0 
C 1267 0 1594 0 1798 0 
L 1798 160 
C 1338 160 1261 160 1261 447 
L 1261 3905 
z
" transform="scale(0.015625)"/>
       <path id="CMR17-63" d="M 2234 2240 
C 2112 2240 1933 2240 1933 2017 
C 1933 1838 2080 1787 2163 1787 
C 2208 1787 2394 1807 2394 2024 
C 2394 2467 1958 2803 1466 2803 
C 787 2803 211 2178 211 1363 
C 211 516 813 -64 1466 -64 
C 2259 -64 2458 677 2458 748 
C 2458 774 2451 793 2406 793 
C 2362 793 2355 787 2330 703 
C 2163 180 1798 51 1523 51 
C 1114 51 621 427 621 1369 
C 621 2338 1094 2688 1472 2688 
C 1722 2688 2093 2573 2234 2240 
z
" transform="scale(0.015625)"/>
       <path id="CMR17-72" d="M 960 1497 
C 960 2112 1222 2688 1702 2688 
C 1747 2688 1792 2682 1837 2662 
C 1837 2662 1696 2617 1696 2452 
C 1696 2298 1818 2234 1914 2234 
C 1990 2234 2131 2279 2131 2458 
C 2131 2663 1926 2790 1709 2790 
C 1222 2790 1011 2317 947 2093 
L 941 2093 
L 941 2790 
L 198 2720 
L 198 2554 
C 576 2554 634 2515 634 2208 
L 634 428 
C 634 184 608 153 198 153 
L 198 -13 
C 352 0 646 0 813 0 
C 998 0 1325 0 1498 -13 
L 1498 153 
C 1037 153 960 153 960 440 
L 960 1497 
z
" transform="scale(0.015625)"/>
       <path id="CMR17-67" d="M 710 1164 
C 832 1068 1043 960 1299 960 
C 1805 960 2240 1357 2240 1888 
C 2240 2054 2189 2310 1997 2509 
C 2176 2692 2438 2752 2586 2752 
C 2611 2752 2650 2752 2682 2734 
C 2656 2728 2598 2703 2598 2605 
C 2598 2527 2656 2471 2739 2471 
C 2835 2471 2886 2533 2886 2614 
C 2886 2731 2790 2854 2586 2854 
C 2330 2854 2106 2738 1926 2580 
C 1734 2753 1504 2816 1299 2816 
C 794 2816 358 2419 358 1888 
C 358 1522 570 1292 634 1228 
C 442 1004 442 743 442 711 
C 442 545 506 302 723 168 
C 390 85 128 -169 128 -486 
C 128 -943 736 -1280 1466 -1280 
C 2170 -1280 2803 -956 2803 -479 
C 2803 384 1856 384 1363 384 
C 1216 384 954 384 922 391 
C 723 423 589 602 589 826 
C 589 883 589 1024 710 1164 
z
M 1299 1068 
C 736 1068 736 1760 736 1889 
C 736 2016 736 2708 1299 2708 
C 1862 2708 1862 2016 1862 1889 
C 1862 1760 1862 1068 1299 1068 
z
M 1466 -1171 
C 826 -1171 384 -835 384 -486 
C 384 -289 493 -105 634 -4 
C 794 104 858 104 1293 104 
C 1818 104 2547 104 2547 -486 
C 2547 -835 2106 -1171 1466 -1171 
z
" transform="scale(0.015625)"/>
      </defs>
      <use xlink:href="#CMR17-49" transform="scale(0.996264)"/>
      <use xlink:href="#CMR17-6e" transform="translate(32.638409 0) scale(0.996264)"/>
      <use xlink:href="#CMR17-63" transform="translate(83.533779 0) scale(0.996264)"/>
      <use xlink:href="#CMR17-72" transform="translate(124.019439 0) scale(0.996264)"/>
      <use xlink:href="#CMR17-65" transform="translate(159.300207 0) scale(0.996264)"/>
      <use xlink:href="#CMR17-61" transform="translate(199.785868 0) scale(0.996264)"/>
      <use xlink:href="#CMR17-73" transform="translate(245.476345 0) scale(0.996264)"/>
      <use xlink:href="#CMR17-69" transform="translate(281.277682 0) scale(0.996264)"/>
      <use xlink:href="#CMR17-6e" transform="translate(306.148741 0) scale(0.996264)"/>
      <use xlink:href="#CMR17-67" transform="translate(357.044111 0) scale(0.996264)"/>
     </g>
    </g>
    <g id="line2d_17">
     <path d="M 388.115886 81.231375 
L 400.115886 81.231375 
L 412.115886 81.231375 
" style="fill: none; stroke: #e8000b; stroke-width: 1.5; stroke-linecap: round"/>
    </g>
    <g id="text_9">
     <!-- Sinusoidal -->
     <g style="fill: #262626" transform="translate(421.715886 85.431375) scale(0.12 -0.12)">
      <defs>
       <path id="CMR17-53" d="M 2803 4290 
C 2803 4404 2797 4411 2758 4411 
C 2720 4411 2707 4385 2682 4328 
L 2490 3907 
C 2246 4257 1875 4416 1472 4416 
C 819 4416 294 3901 294 3253 
C 294 3056 339 2776 557 2510 
C 794 2218 1018 2167 1530 2033 
C 1722 1982 2042 1899 2106 1874 
C 2470 1722 2662 1341 2662 985 
C 2662 527 2336 38 1779 38 
C 1094 38 454 419 410 1311 
C 403 1413 397 1419 352 1419 
C 301 1419 294 1413 294 1285 
L 294 -1 
C 294 -115 301 -122 339 -122 
C 384 -122 397 -90 486 108 
C 493 127 493 140 614 381 
C 934 -39 1472 -128 1779 -128 
C 2477 -128 2970 451 2970 1124 
C 2970 1454 2848 1708 2778 1823 
C 2509 2230 2221 2306 1914 2382 
C 1869 2402 1856 2402 1498 2490 
C 1152 2579 1005 2624 845 2796 
C 666 2992 602 3196 602 3399 
C 602 3812 934 4263 1478 4263 
C 2157 4263 2579 3786 2675 2993 
C 2694 2878 2701 2872 2746 2872 
C 2803 2872 2803 2891 2803 2999 
L 2803 4290 
z
" transform="scale(0.015625)"/>
       <path id="CMR17-75" d="M 1882 2693 
L 1882 2528 
C 2259 2528 2317 2489 2317 2186 
L 2317 1032 
C 2317 500 2029 38 1555 38 
C 1030 38 986 348 986 678 
L 986 2763 
L 211 2693 
L 211 2528 
C 467 2528 640 2528 646 2274 
L 646 1058 
C 646 633 646 361 813 183 
C 896 101 1056 -64 1517 -64 
C 2061 -64 2272 377 2323 506 
L 2330 506 
L 2330 -63 
L 3091 -63 
L 3091 128 
C 2714 128 2656 166 2656 473 
L 2656 2763 
L 1882 2693 
z
" transform="scale(0.015625)"/>
      </defs>
      <use xlink:href="#CMR17-53" transform="scale(0.996264)"/>
      <use xlink:href="#CMR17-69" transform="translate(50.89537 0) scale(0.996264)"/>
      <use xlink:href="#CMR17-6e" transform="translate(75.766428 0) scale(0.996264)"/>
      <use xlink:href="#CMR17-75" transform="translate(124.059344 0) scale(0.996264)"/>
      <use xlink:href="#CMR17-73" transform="translate(174.954714 0) scale(0.996264)"/>
      <use xlink:href="#CMR17-6f" transform="translate(210.756052 0) scale(0.996264)"/>
      <use xlink:href="#CMR17-69" transform="translate(256.446529 0) scale(0.996264)"/>
      <use xlink:href="#CMR17-64" transform="translate(281.317587 0) scale(0.996264)"/>
      <use xlink:href="#CMR17-61" transform="translate(332.212957 0) scale(0.996264)"/>
      <use xlink:href="#CMR17-6c" transform="translate(377.903434 0) scale(0.996264)"/>
     </g>
    </g>
   </g>
  </g>
  <g id="axes_2">
   <g id="patch_8">
    <path d="M 94.163399 201.577819 
L 376.469758 201.577819 
L 376.469758 108.289269 
L 94.163399 108.289269 
z
" style="fill: #ffffff"/>
   </g>
   <g id="matplotlib.axis_3">
    <g id="xtick_7">
     <g id="line2d_18">
      <g>
       <use xlink:href="#m9a2460a10e" x="106.995506" y="201.577819" style="fill: #262626; stroke: #262626; stroke-width: 1.25"/>
      </g>
     </g>
     <g id="text_10">
      <!-- $\mathdefault{0.0}$ -->
      <g style="fill: #262626" transform="translate(99.516685 219.379999) scale(0.12 -0.12)">
       <defs>
        <path id="CMMI12-3a" d="M 1178 307 
C 1178 492 1024 619 870 619 
C 685 619 557 466 557 313 
C 557 128 710 0 864 0 
C 1050 0 1178 153 1178 307 
z
" transform="scale(0.015625)"/>
       </defs>
       <use xlink:href="#CMR17-30" transform="scale(0.996264)"/>
       <use xlink:href="#CMMI12-3a" transform="translate(45.690477 0) scale(0.996264)"/>
       <use xlink:href="#CMR17-30" transform="translate(72.787654 0) scale(0.996264)"/>
      </g>
     </g>
    </g>
    <g id="xtick_8">
     <g id="line2d_19">
      <g>
       <use xlink:href="#m9a2460a10e" x="158.323935" y="201.577819" style="fill: #262626; stroke: #262626; stroke-width: 1.25"/>
      </g>
     </g>
     <g id="text_11">
      <!-- $\mathdefault{0.2}$ -->
      <g style="fill: #262626" transform="translate(150.845114 219.379999) scale(0.12 -0.12)">
       <use xlink:href="#CMR17-30" transform="scale(0.996264)"/>
       <use xlink:href="#CMMI12-3a" transform="translate(45.690477 0) scale(0.996264)"/>
       <use xlink:href="#CMR17-32" transform="translate(72.787654 0) scale(0.996264)"/>
      </g>
     </g>
    </g>
    <g id="xtick_9">
     <g id="line2d_20">
      <g>
       <use xlink:href="#m9a2460a10e" x="209.652364" y="201.577819" style="fill: #262626; stroke: #262626; stroke-width: 1.25"/>
      </g>
     </g>
     <g id="text_12">
      <!-- $\mathdefault{0.4}$ -->
      <g style="fill: #262626" transform="translate(202.173543 219.379999) scale(0.12 -0.12)">
       <defs>
        <path id="CMR17-34" d="M 2150 4122 
C 2150 4256 2144 4256 2029 4256 
L 128 1254 
L 128 1088 
L 1779 1088 
L 1779 457 
C 1779 224 1766 160 1318 160 
L 1197 160 
L 1197 0 
C 1402 0 1747 0 1965 0 
C 2182 0 2528 0 2733 0 
L 2733 160 
L 2611 160 
C 2163 160 2150 224 2150 457 
L 2150 1088 
L 2803 1088 
L 2803 1254 
L 2150 1254 
L 2150 4122 
z
M 1798 3703 
L 1798 1254 
L 256 1254 
L 1798 3703 
z
" transform="scale(0.015625)"/>
       </defs>
       <use xlink:href="#CMR17-30" transform="scale(0.996264)"/>
       <use xlink:href="#CMMI12-3a" transform="translate(45.690477 0) scale(0.996264)"/>
       <use xlink:href="#CMR17-34" transform="translate(72.787654 0) scale(0.996264)"/>
      </g>
     </g>
    </g>
    <g id="xtick_10">
     <g id="line2d_21">
      <g>
       <use xlink:href="#m9a2460a10e" x="260.980793" y="201.577819" style="fill: #262626; stroke: #262626; stroke-width: 1.25"/>
      </g>
     </g>
     <g id="text_13">
      <!-- $\mathdefault{0.6}$ -->
      <g style="fill: #262626" transform="translate(253.501972 219.379999) scale(0.12 -0.12)">
       <defs>
        <path id="CMR17-36" d="M 678 2176 
C 678 3690 1395 4032 1811 4032 
C 1946 4032 2272 4009 2400 3776 
C 2298 3776 2106 3776 2106 3553 
C 2106 3381 2246 3323 2336 3323 
C 2394 3323 2566 3348 2566 3560 
C 2566 3954 2246 4179 1805 4179 
C 1043 4179 243 3390 243 1984 
C 243 253 966 -128 1478 -128 
C 2099 -128 2688 427 2688 1283 
C 2688 2081 2170 2662 1517 2662 
C 1126 2662 838 2407 678 1960 
L 678 2176 
z
M 1478 25 
C 691 25 691 1200 691 1436 
C 691 1896 909 2560 1504 2560 
C 1613 2560 1926 2560 2138 2120 
C 2253 1870 2253 1609 2253 1289 
C 2253 944 2253 690 2118 434 
C 1978 171 1773 25 1478 25 
z
" transform="scale(0.015625)"/>
       </defs>
       <use xlink:href="#CMR17-30" transform="scale(0.996264)"/>
       <use xlink:href="#CMMI12-3a" transform="translate(45.690477 0) scale(0.996264)"/>
       <use xlink:href="#CMR17-36" transform="translate(72.787654 0) scale(0.996264)"/>
      </g>
     </g>
    </g>
    <g id="xtick_11">
     <g id="line2d_22">
      <g>
       <use xlink:href="#m9a2460a10e" x="312.309222" y="201.577819" style="fill: #262626; stroke: #262626; stroke-width: 1.25"/>
      </g>
     </g>
     <g id="text_14">
      <!-- $\mathdefault{0.8}$ -->
      <g style="fill: #262626" transform="translate(304.830401 219.379999) scale(0.12 -0.12)">
       <defs>
        <path id="CMR17-38" d="M 1741 2264 
C 2144 2467 2554 2773 2554 3263 
C 2554 3841 1990 4179 1472 4179 
C 890 4179 378 3759 378 3180 
C 378 3021 416 2747 666 2505 
C 730 2442 998 2251 1171 2130 
C 883 1983 211 1634 211 934 
C 211 279 838 -128 1459 -128 
C 2144 -128 2720 362 2720 1010 
C 2720 1590 2330 1857 2074 2029 
L 1741 2264 
z
M 902 2822 
C 851 2854 595 3051 595 3351 
C 595 3739 998 4032 1459 4032 
C 1965 4032 2336 3676 2336 3262 
C 2336 2669 1670 2331 1638 2331 
C 1632 2331 1626 2331 1574 2370 
L 902 2822 
z
M 2080 1519 
C 2176 1449 2483 1240 2483 851 
C 2483 381 2010 25 1472 25 
C 890 25 448 438 448 940 
C 448 1443 838 1862 1280 2060 
L 2080 1519 
z
" transform="scale(0.015625)"/>
       </defs>
       <use xlink:href="#CMR17-30" transform="scale(0.996264)"/>
       <use xlink:href="#CMMI12-3a" transform="translate(45.690477 0) scale(0.996264)"/>
       <use xlink:href="#CMR17-38" transform="translate(72.787654 0) scale(0.996264)"/>
      </g>
     </g>
    </g>
    <g id="xtick_12">
     <g id="line2d_23">
      <g>
       <use xlink:href="#m9a2460a10e" x="363.637651" y="201.577819" style="fill: #262626; stroke: #262626; stroke-width: 1.25"/>
      </g>
     </g>
     <g id="text_15">
      <!-- $\mathdefault{1.0}$ -->
      <g style="fill: #262626" transform="translate(356.15883 219.379999) scale(0.12 -0.12)">
       <defs>
        <path id="CMR17-31" d="M 1702 4058 
C 1702 4192 1696 4192 1606 4192 
C 1357 3916 979 3827 621 3827 
C 602 3827 570 3827 563 3808 
C 557 3795 557 3782 557 3648 
C 755 3648 1088 3686 1344 3839 
L 1344 461 
C 1344 236 1331 160 781 160 
L 589 160 
L 589 0 
C 896 0 1216 0 1523 0 
C 1830 0 2150 0 2458 0 
L 2458 160 
L 2266 160 
C 1715 160 1702 230 1702 458 
L 1702 4058 
z
" transform="scale(0.015625)"/>
       </defs>
       <use xlink:href="#CMR17-31" transform="scale(0.996264)"/>
       <use xlink:href="#CMMI12-3a" transform="translate(45.690477 0) scale(0.996264)"/>
       <use xlink:href="#CMR17-30" transform="translate(72.787654 0) scale(0.996264)"/>
      </g>
     </g>
    </g>
    <g id="text_16">
     <!-- $\frac{t}{T}$ -->
     <g style="fill: #262626" transform="translate(230.365951 242.128722) scale(0.2 -0.2)">
      <defs>
       <path id="CMMI12-54" d="M 2669 3910 
C 2707 4064 2720 4121 2816 4147 
C 2867 4160 3078 4160 3213 4160 
C 3853 4160 4154 4134 4154 3634 
C 4154 3537 4128 3295 4090 3057 
L 4083 2980 
C 4083 2954 4109 2916 4147 2916 
C 4211 2916 4211 2948 4230 3050 
L 4416 4184 
C 4429 4243 4429 4256 4429 4275 
C 4429 4345 4390 4345 4262 4345 
L 762 4345 
C 614 4345 608 4339 570 4224 
L 179 3070 
C 173 3056 154 2986 154 2980 
C 154 2948 179 2916 218 2916 
C 269 2916 282 2941 307 3024 
C 576 3801 710 4160 1562 4160 
L 1990 4160 
C 2144 4160 2208 4160 2208 4089 
C 2208 4069 2208 4057 2176 3941 
L 1318 499 
C 1254 249 1242 185 563 185 
C 403 185 358 185 358 64 
C 358 0 429 0 461 0 
C 621 0 787 0 947 0 
L 1946 0 
C 2106 0 2278 0 2438 0 
C 2509 0 2573 0 2573 121 
C 2573 185 2528 185 2362 185 
C 1786 185 1786 243 1786 339 
C 1786 346 1786 391 1811 494 
L 2669 3910 
z
" transform="scale(0.015625)"/>
      </defs>
      <use xlink:href="#CMMI12-74" transform="translate(12.424006 39.226102) scale(0.697382)"/>
      <use xlink:href="#CMMI12-54" transform="translate(0 -34.355253) scale(0.697382)"/>
      <path d="M 0 22.914133 
L 49.506322 22.914133 
L 49.506322 26.899083 
L 0 26.899083 
L 0 22.914133 
z
"/>
     </g>
    </g>
   </g>
   <g id="matplotlib.axis_4">
    <g id="ytick_4">
     <g id="line2d_24">
      <g>
       <use xlink:href="#m283ade861e" x="94.163399" y="161.856926" style="fill: #262626; stroke: #262626; stroke-width: 1.25"/>
      </g>
     </g>
     <g id="text_17">
      <!-- $\mathdefault{−0.001}$ -->
      <g style="fill: #262626" transform="translate(48.701287 166.008016) scale(0.12 -0.12)">
       <use xlink:href="#CMSY10-0" transform="scale(0.996264)"/>
       <use xlink:href="#CMR17-30" transform="translate(77.487468 0) scale(0.996264)"/>
       <use xlink:href="#CMMI12-3a" transform="translate(123.177945 0) scale(0.996264)"/>
       <use xlink:href="#CMR17-30" transform="translate(150.275122 0) scale(0.996264)"/>
       <use xlink:href="#CMR17-30" transform="translate(195.965599 0) scale(0.996264)"/>
       <use xlink:href="#CMR17-31" transform="translate(241.656076 0) scale(0.996264)"/>
      </g>
     </g>
    </g>
    <g id="ytick_5">
     <g id="line2d_25">
      <g>
       <use xlink:href="#m283ade861e" x="94.163399" y="112.529055" style="fill: #262626; stroke: #262626; stroke-width: 1.25"/>
      </g>
     </g>
     <g id="text_18">
      <!-- $\mathdefault{0.000}$ -->
      <g style="fill: #262626" transform="translate(57.999776 116.680145) scale(0.12 -0.12)">
       <use xlink:href="#CMR17-30" transform="scale(0.996264)"/>
       <use xlink:href="#CMMI12-3a" transform="translate(45.690477 0) scale(0.996264)"/>
       <use xlink:href="#CMR17-30" transform="translate(72.787654 0) scale(0.996264)"/>
       <use xlink:href="#CMR17-30" transform="translate(118.478131 0) scale(0.996264)"/>
       <use xlink:href="#CMR17-30" transform="translate(164.168608 0) scale(0.996264)"/>
      </g>
     </g>
    </g>
    <g id="text_19">
     <!-- $\beta_x (t)$ -->
     <g style="fill: #262626" transform="translate(3.00024 158.669534) scale(0.15 -0.15)">
      <defs>
       <path id="CMMI12-c" d="M 3622 3701 
C 3622 4081 3296 4480 2714 4480 
C 1888 4480 1363 3477 1197 2816 
L 186 -1172 
C 173 -1223 211 -1236 243 -1236 
C 288 -1236 320 -1230 326 -1198 
L 774 586 
C 838 229 1190 -64 1568 -64 
C 2483 -64 3347 650 3347 1599 
C 3347 1841 3290 2083 3155 2287 
C 3078 2408 2982 2497 2880 2574 
C 3341 2815 3622 3200 3622 3701 
z
M 2509 2580 
C 2406 2542 2304 2529 2182 2529 
C 2093 2529 2010 2523 1894 2561 
C 1958 2606 2054 2618 2189 2618 
C 2304 2618 2419 2606 2509 2580 
z
M 3290 3758 
C 3290 3410 3117 2903 2701 2669 
C 2579 2718 2413 2752 2272 2752 
C 2138 2752 1754 2752 1754 2555 
C 1754 2389 2106 2389 2214 2389 
C 2381 2389 2528 2432 2682 2484 
C 2886 2318 2976 2101 2976 1783 
C 2976 1413 2874 1115 2752 841 
C 2541 369 2042 64 1600 64 
C 1133 64 890 432 890 864 
C 890 922 890 1005 915 1099 
L 1331 2771 
C 1542 3603 2080 4353 2701 4353 
C 3162 4353 3290 4036 3290 3758 
z
" transform="scale(0.015625)"/>
       <path id="CMMI12-78" d="M 3034 2606 
C 2829 2567 2752 2414 2752 2293 
C 2752 2139 2874 2088 2963 2088 
C 3155 2088 3290 2254 3290 2427 
C 3290 2695 2982 2816 2714 2816 
C 2323 2816 2106 2433 2048 2312 
C 1901 2816 1504 2816 1389 2816 
C 736 2816 390 1980 390 1839 
C 390 1814 416 1782 461 1782 
C 512 1782 525 1820 538 1846 
C 755 2555 1184 2689 1370 2689 
C 1658 2689 1715 2420 1715 2267 
C 1715 2127 1677 1980 1600 1673 
L 1382 798 
C 1286 415 1101 64 762 64 
C 730 64 570 64 435 147 
C 666 192 717 383 717 460 
C 717 588 621 664 499 664 
C 346 664 179 530 179 326 
C 179 57 480 -64 755 -64 
C 1062 -64 1280 179 1414 441 
C 1517 64 1837 -64 2074 -64 
C 2726 -64 3072 773 3072 913 
C 3072 945 3046 971 3008 971 
C 2950 971 2944 939 2925 888 
C 2752 326 2381 64 2093 64 
C 1869 64 1747 230 1747 492 
C 1747 632 1773 734 1875 1156 
L 2099 2024 
C 2195 2408 2413 2689 2707 2689 
C 2720 2689 2899 2689 3034 2606 
z
" transform="scale(0.015625)"/>
      </defs>
      <use xlink:href="#CMMI12-c" transform="scale(0.996264)"/>
      <use xlink:href="#CMMI12-78" transform="translate(55.070737 -14.943915) scale(0.697382)"/>
      <use xlink:href="#CMR17-28" transform="translate(94.372528 0) scale(0.996264)"/>
      <use xlink:href="#CMMI12-74" transform="translate(129.653296 0) scale(0.996264)"/>
      <use xlink:href="#CMR17-29" transform="translate(164.879626 0) scale(0.996264)"/>
     </g>
    </g>
   </g>
   <g id="line2d_26">
    <path d="M 106.995506 112.529658 
L 107.088691 113.030799 
L 107.324381 116.250417 
L 107.704087 120.858112 
L 107.765432 120.937798 
L 108.022074 119.418017 
L 108.278717 117.322491 
L 108.535359 116.880875 
L 109.048643 118.182457 
L 109.305285 118.732315 
L 109.561927 118.962823 
L 110.588496 119.14812 
L 112.128349 119.915156 
L 115.464697 121.198762 
L 118.544402 122.134956 
L 122.137392 122.992652 
L 125.987025 123.703823 
L 131.633152 124.449973 
L 143.182048 125.351411 
L 149.084818 125.627874 
L 165.253273 126.078975 
L 208.625795 126.577821 
L 258.157729 126.794145 
L 344.902775 126.925465 
L 363.637651 126.93732 
L 363.637651 126.93732 
" clip-path="url(#p8af06d8f06)" style="fill: none; stroke: #023eff; stroke-width: 1.5; stroke-linecap: round"/>
   </g>
   <g id="line2d_27">
    <path d="M 106.995506 112.529922 
L 107.081602 112.997418 
L 107.311217 116.497626 
L 107.765432 125.375238 
L 107.893753 126.070438 
L 108.022074 125.905254 
L 108.535359 122.114685 
L 108.792001 121.241864 
L 109.048643 121.424613 
L 110.075212 124.506287 
L 110.588496 124.933057 
L 111.10178 125.368591 
L 114.181486 129.044288 
L 116.491265 131.373184 
L 118.801045 133.393328 
L 121.367466 135.291369 
L 123.677245 136.731168 
L 125.987025 137.937683 
L 128.553446 139.037846 
L 131.37651 139.992781 
L 134.199573 140.736869 
L 138.049205 141.460984 
L 143.43869 142.063019 
L 146.005112 142.21879 
L 147.031681 142.270827 
L 147.801607 142.290231 
L 148.571533 142.365061 
L 149.598102 142.334298 
L 150.368028 142.420307 
L 151.394597 142.345757 
L 152.164523 142.445057 
L 153.447734 142.38861 
L 154.217661 142.422308 
L 155.244229 142.364966 
L 156.270798 142.377962 
L 157.040724 142.336687 
L 158.067293 142.350231 
L 158.837219 142.301224 
L 159.607146 142.361257 
L 160.633714 142.251033 
L 161.916925 142.248172 
L 163.200136 142.222345 
L 171.925969 141.872414 
L 208.112511 140.40608 
L 229.927093 139.794275 
L 255.591308 139.306288 
L 288.18486 138.920006 
L 337.20351 138.60973 
L 363.637651 138.516161 
L 363.637651 138.516161 
" clip-path="url(#p8af06d8f06)" style="fill: none; stroke: #ff7c00; stroke-width: 1.5; stroke-linecap: round"/>
   </g>
   <g id="line2d_28">
    <path d="M 106.995506 112.52979 
L 107.765432 121.800457 
L 108.022074 122.599424 
L 108.278717 121.444927 
L 108.792001 117.958754 
L 109.048643 118.438532 
L 109.561927 120.78906 
L 109.818569 121.450175 
L 110.075212 121.670132 
L 110.845138 121.765739 
L 111.615064 122.525693 
L 112.641633 123.398025 
L 117.774476 127.280669 
L 120.854182 129.312356 
L 124.447172 131.428369 
L 128.296804 133.416962 
L 132.146436 135.139665 
L 136.509353 136.806583 
L 139.075774 137.652281 
L 147.544965 139.813995 
L 150.368028 140.366669 
L 157.297366 141.347949 
L 160.890356 141.693968 
L 164.996631 141.974448 
L 170.386116 142.168407 
L 176.802169 142.184605 
L 183.988149 141.978881 
L 192.45734 141.503865 
L 202.723026 140.690547 
L 216.581702 139.348016 
L 276.12268 133.325039 
L 294.600914 131.780716 
L 321.035055 129.891236 
L 341.823069 128.63378 
L 363.637651 127.493273 
L 363.637651 127.493273 
" clip-path="url(#p8af06d8f06)" style="fill: none; stroke: #1ac938; stroke-width: 1.5; stroke-linecap: round"/>
   </g>
   <g id="line2d_29">
    <path d="M 106.995506 112.52979 
L 107.765432 121.768629 
L 108.022074 122.53298 
L 108.278717 121.341438 
L 108.792001 117.834078 
L 109.048643 118.326927 
L 109.561927 120.631981 
L 109.818569 121.244971 
L 110.075212 121.419526 
L 110.588496 121.355141 
L 111.10178 121.618146 
L 112.128349 122.48052 
L 115.464697 124.427581 
L 117.774476 125.489023 
L 120.084255 126.313856 
L 122.650677 126.971239 
L 124.960456 127.384556 
L 127.270235 127.624988 
L 134.456215 127.671654 
L 135.226142 127.630464 
L 135.996068 127.625348 
L 137.022637 127.530326 
L 138.049205 127.480457 
L 140.102343 127.325797 
L 146.261754 126.951484 
L 154.730945 126.735245 
L 159.863788 126.92084 
L 163.970062 127.287581 
L 168.589621 127.973554 
L 171.669326 128.631749 
L 174.49239 129.373986 
L 179.111949 131.006529 
L 180.395159 131.564177 
L 183.988149 133.378175 
L 188.86435 136.574567 
L 189.634277 137.248609 
L 190.404203 137.88329 
L 191.17413 138.496948 
L 192.45734 139.7275 
L 193.227267 140.472236 
L 194.253835 141.606746 
L 195.023762 142.36009 
L 196.05033 143.707162 
L 196.820257 144.47023 
L 198.36011 146.567282 
L 198.873394 147.190314 
L 200.156605 149.236694 
L 200.669889 149.821983 
L 201.183173 150.740408 
L 201.9531 152.170629 
L 202.723026 153.132526 
L 203.492952 154.78693 
L 204.006237 155.732784 
L 204.776163 156.768186 
L 206.316016 159.939376 
L 206.8293 160.705555 
L 208.369153 164.100652 
L 208.882438 164.89681 
L 210.165648 168.160089 
L 210.678933 168.791293 
L 211.192217 169.949067 
L 211.962143 172.242257 
L 212.475428 172.948928 
L 212.73207 173.239623 
L 212.988712 173.706063 
L 214.271923 177.186542 
L 214.785207 177.646614 
L 215.041849 178.085372 
L 215.555133 179.693326 
L 216.068418 181.213678 
L 216.32506 181.559304 
L 216.838344 181.860257 
L 217.094986 182.253229 
L 217.60827 183.874979 
L 218.121555 185.369401 
L 218.378197 185.632037 
L 218.891481 185.72102 
L 219.148123 186.055868 
L 219.661408 187.681184 
L 220.174692 189.106852 
L 220.431334 189.251245 
L 220.944618 189.079003 
L 221.201261 189.354429 
L 221.714545 190.991852 
L 221.971187 191.778299 
L 222.227829 192.071844 
L 222.997756 192.425422 
L 223.767682 193.434011 
L 224.537608 194.300086 
L 226.334103 195.787153 
L 227.360672 196.392004 
L 228.900525 197.036849 
L 230.69702 197.33743 
L 232.493515 197.214167 
L 234.29001 196.730665 
L 235.829863 196.059416 
L 236.856431 195.537518 
L 242.759201 191.678503 
L 243.529127 191.165857 
L 244.299054 190.672373 
L 245.325622 189.908788 
L 246.095549 189.483131 
L 247.122117 188.704374 
L 247.892044 188.365061 
L 248.918612 187.585215 
L 249.945181 187.173396 
L 250.715107 186.578455 
L 251.998318 186.106691 
L 252.511602 185.706738 
L 253.024887 185.638247 
L 253.538171 185.584385 
L 254.564739 184.899375 
L 255.334666 185.001076 
L 255.84795 184.665629 
L 256.361234 184.319842 
L 256.874519 184.465332 
L 257.131161 184.556563 
L 257.387803 184.514552 
L 258.157729 183.906659 
L 258.414372 183.909718 
L 259.184298 184.295601 
L 259.697582 183.899949 
L 259.954224 183.671735 
L 260.210867 183.621602 
L 261.237435 184.163776 
L 262.007362 183.490783 
L 262.264004 183.614874 
L 262.777288 184.22711 
L 263.03393 184.30986 
L 263.290572 184.115734 
L 263.803857 183.52895 
L 264.060499 183.566633 
L 264.830425 184.520895 
L 265.087067 184.453202 
L 265.856994 183.851399 
L 266.113636 183.984439 
L 266.62692 184.627648 
L 266.883562 184.763607 
L 267.140205 184.639265 
L 267.653489 184.141144 
L 267.910131 184.172901 
L 268.680057 185.152666 
L 268.9367 185.149906 
L 269.706626 184.661331 
L 269.963268 184.763378 
L 270.733195 185.425935 
L 271.246479 185.377611 
L 271.759763 185.271215 
L 272.273047 185.510594 
L 272.786332 185.788863 
L 273.299616 185.806627 
L 273.8129 185.788015 
L 275.609395 186.156374 
L 276.379322 186.261751 
L 277.149248 186.370673 
L 280.485596 186.176247 
L 281.768807 185.87934 
L 283.565302 185.203408 
L 285.361797 184.185252 
L 287.158292 182.813303 
L 288.954787 181.089179 
L 290.751282 179.03326 
L 292.804419 176.328024 
L 295.370841 172.510037 
L 299.477115 165.886783 
L 306.919737 154.225822 
L 309.742801 150.375284 
L 310.512727 149.418997 
L 311.282654 148.511518 
L 312.05258 147.526155 
L 313.079149 146.453412 
L 313.849075 145.548218 
L 315.132286 144.277053 
L 315.902212 143.558895 
L 316.672139 142.879386 
L 317.442065 142.142169 
L 318.725276 141.12814 
L 319.751844 140.373219 
L 323.344834 138.048957 
L 326.681182 136.3986 
L 331.300741 134.831324 
L 333.353878 134.383107 
L 334.380447 134.276698 
L 335.150373 134.106492 
L 335.920299 134.138042 
L 336.946868 133.938691 
L 337.973437 133.956376 
L 338.743363 133.878501 
L 339.769932 133.945349 
L 340.539858 133.903872 
L 341.309785 134.057615 
L 342.079711 133.953157 
L 343.10628 134.246879 
L 343.876206 134.13475 
L 344.646132 134.554152 
L 345.672701 134.465951 
L 346.69927 134.883175 
L 347.469196 134.901193 
L 348.752407 135.389459 
L 349.265691 135.426403 
L 353.628607 137.300089 
L 354.398534 137.706263 
L 355.16846 138.049114 
L 356.708313 138.95972 
L 357.47824 139.50941 
L 358.504808 140.194207 
L 359.531377 140.974262 
L 363.381009 144.367329 
L 363.637651 144.646829 
L 363.637651 144.646829 
" clip-path="url(#p8af06d8f06)" style="fill: none; stroke: #e8000b; stroke-width: 1.5; stroke-linecap: round"/>
   </g>
   <g id="patch_9">
    <path d="M 94.163399 201.577819 
L 94.163399 108.289269 
" style="fill: none; stroke: #262626; stroke-width: 1.25; stroke-linejoin: miter; stroke-linecap: square"/>
   </g>
   <g id="patch_10">
    <path d="M 376.469758 201.577819 
L 376.469758 108.289269 
" style="fill: none; stroke: #262626; stroke-width: 1.25; stroke-linejoin: miter; stroke-linecap: square"/>
   </g>
   <g id="patch_11">
    <path d="M 94.163399 201.577819 
L 376.469758 201.577819 
" style="fill: none; stroke: #262626; stroke-width: 1.25; stroke-linejoin: miter; stroke-linecap: square"/>
   </g>
   <g id="patch_12">
    <path d="M 94.163399 108.289269 
L 376.469758 108.289269 
" style="fill: none; stroke: #262626; stroke-width: 1.25; stroke-linejoin: miter; stroke-linecap: square"/>
   </g>
  </g>
 </g>
 <defs>
  <clipPath id="p363de5f8ac">
   <rect x="94.163399" y="3.00024" width="282.30636" height="93.288549"/>
  </clipPath>
  <clipPath id="p8af06d8f06">
   <rect x="94.163399" y="108.289269" width="282.30636" height="93.288549"/>
  </clipPath>
 </defs>
</svg>
